<svg width="160" height="140" fill="none" xmlns="http://www.w3.org/2000/svg"><path fill="#fff" d="M0 0H160V140H0z"/><g clip-path="url(#clip0_601_6545)" fill-rule="evenodd" clip-rule="evenodd"><path d="M112.493 28.294c-3.086 1.996-5.583 2.764-7.482 2.311a.154.154 0 0 1-.121-.145c0-.073.049-.13.113-.154.938-.234 1.778-.533 1.996-1.858 2.101.452 3.822.21 5.349-.42a.148.148 0 0 1 .194.072.144.144 0 0 1-.049.194zM46.238 61.486c8.218 1.721 16.007 9.923 20.564 15.215-3.224-4.541-11.401-16.952-18.85-20.677l-1.714 5.462zm-8.79 9.123l-1.827 6.407c9.236.832 24.846 7.902 31.366 12.58-5.696-6.003-19.529-18.834-29.54-18.987zm77.93.21l2.238-7.16C109.043 62.619 93.788 75.4 87.89 79.885c7.959-4.638 17.655-8.88 27.488-9.065zm3.927 9.873l2.076-7.522c-12.524-2.15-26.744 6.827-36.262 13.114 10.859-4.897 22.26-6.957 34.186-5.592zm2.674 9.947l1.535-6.658c-14.374-2.699-27.908 1.083-40.318 7.595 11.7-3.507 27.302-6.61 38.783-.937zm3.466-8.226l-2.868 13.373c-.073.33-.493.525-.881.428v.016l-.323-.194c-12.677-7.353-34.752.525-46.378 2.303-11.627 1.777-23.9-19.069-40.675-19.279l.009-.016c-.38-.08-.614-.404-.517-.727l2.69-9.478c.097-.347.517-.541.913-.428l.016-.057c1.043 0 2.11.09 3.2.267l1.745-7.03c.113-.452.533-.509.978-.428.5.008 1.002.04 1.503.097l2.14-6.835c.154-.501.671-.429.865-.429l.017-.04c11.99 3.434 23.997 22.3 28.732 29.807 8.386-7.022 29.281-24.2 42.144-21.34l-.032.09c.38.088.598.42.501.743l-2.368 7.563 5.737.598c.38.072.614.404.525.727l-2.416 8.726c.962.13 4.994.38 4.743 1.543zm-57.714 2.06c-4.323-5.615-15.457-20.74-24.361-21.104l-1.366 5.519c9.575 2.1 20.152 10.067 25.727 15.586zM71.86 60.46c0-.71-.291-1.357-.76-1.826a2.578 2.578 0 0 0-1.826-.76v-.129c.711 0 1.357-.29 1.826-.76.469-.468.76-1.114.76-1.825h.129c0 .71.29 1.357.76 1.826.468.469 1.114.76 1.825.76v.129c-.71 0-1.357.29-1.826.76a2.577 2.577 0 0 0-.76 1.825h-.128zm4.58-11.893c0-.51-.21-.978-.54-1.31-.34-.339-.8-.54-1.31-.54V46.61c.51 0 .978-.21 1.31-.541.339-.34.54-.8.54-1.309h.098c0 .51.21.978.541 1.309.34.34.8.541 1.31.541v.097c-.51 0-.978.21-1.31.542-.34.339-.541.8-.541 1.309h-.097v.008zm26.511 12.378c0-.711-.291-1.357-.76-1.826a2.577 2.577 0 0 0-1.826-.76v-.129c.711 0 1.358-.29 1.826-.76.469-.468.76-1.114.76-1.825h.129c0 .71.291 1.357.76 1.826.468.468 1.115.76 1.826.76v.128c-.711 0-1.358.291-1.826.76a2.576 2.576 0 0 0-.76 1.826h-.129zm12.718-20.587c-7.523-1.972-11.328-.485-14.108 1.042 1.931-2.174 5.268-3.523 10.197-2.772 4.67-5.97 8.557-13.154 10.439-18.567.154-.445.517-.897 4.089-1.907-4.533-1.325-10.415 2.335-14.73 4.549 2.739-2.392 6.496-4.484 11.263-6.294.396-2.69.356-5.26-.121-7.716-5.866 4.12-12.491 11.101-18.697 19.278-9.081 11.975-18.212 26.17-21.791 38.064l-.331-.097c3.627-12.047 11.86-26.704 21.023-38.775 6.424-8.476 15.57-18.51 23.319-22.163-6.165.679-23.173 6.48-20.523 15.465 0 0-1.761-2.052-1.188-4.202-3.369 3.184-5.825 5.899-7.377 8.129-.549.67-2.496 2.432-.412 7.441-1.777-.226-2.472-4.363-2.86-6.577-.073-.412-.162 3.297-.541 3.765-4.048 5.002-11.223 20.426-12.379 32.894l-2.327 7.199c-.17 2.674-1.099 5.203-2.343 7.611a.442.442 0 0 0 .105.873.443.443 0 0 0 .388-.663c1.042-2.505 3.022-4.04 5.696-4.783l4.42-8.613c8.775-7.418 16.41-15.651 22.462-22.107.752-.808 4.323-1.196 6.327-1.075z" fill="#F2966C"/><path d="M70.413 124.009h4.08l-6.827-8.12 6.642-7.975h-3.895l-5.858 7.215v-7.215h-3.232v16.095h3.232v-7.175l5.858 7.175zm-24.748-8.088c0-3.272 2.003-5.325 4.936-5.325 2.91 0 4.913 2.053 4.913 5.325 0 3.272-2.004 5.373-4.913 5.373-2.933 0-4.936-2.101-4.936-5.373zm13.162 0c0-4.816-3.644-8.233-8.234-8.233-4.54 0-8.257 3.409-8.257 8.233 0 4.84 3.708 8.258 8.257 8.258 4.565-.009 8.234-3.418 8.234-8.258zm-31.366 0c0-3.272 2.003-5.325 4.936-5.325 2.91 0 4.913 2.053 4.913 5.325 0 3.272-2.004 5.373-4.913 5.373-2.933 0-4.936-2.101-4.936-5.373zm13.17 0c0-4.816-3.644-8.233-8.234-8.233-4.54 0-8.257 3.409-8.257 8.233 0 4.84 3.708 8.258 8.257 8.258 4.566-.009 8.234-3.418 8.234-8.258zm-18.39 3.733c0-1.891-1.293-3.572-3.11-3.895 1.567-.509 2.746-1.729 2.746-3.692 0-2.4-1.866-4.153-5.235-4.153H10v16.095h6.94c3.346 0 5.301-1.794 5.301-4.355zm-3.66-7.102c0 1.317-.873 2.003-2.4 2.003h-2.949v-4.031h2.95c1.518 0 2.399.735 2.399 2.028zm.388 6.706c0 1.357-.921 2.125-2.489 2.125h-3.248v-4.339h3.183c1.56 0 2.554.832 2.554 2.214zm124.252-1.519v6.27h1.616v-6.27l5.163-9.85h-1.802l-4.177 8.371-4.194-8.371h-1.818l5.212 9.85zm-17.525-9.85v16.12h1.616v-6.731h2.973l3.991 6.731h1.94l-4.154-6.852c2.723-.509 3.968-2.376 3.968-4.59 0-2.65-1.754-4.678-5.487-4.678h-4.847zm8.669 4.687c0 1.963-1.179 3.393-3.805 3.393h-3.248v-6.706h3.231c2.723-.008 3.822 1.284 3.822 3.313zm-26.025 3.369c0-4.218 2.747-6.803 6.318-6.803 3.572 0 6.319 2.585 6.319 6.803s-2.747 6.827-6.319 6.827c-3.571 0-6.318-2.609-6.318-6.827zm14.293 0c0-4.816-3.434-8.234-7.975-8.234-4.516 0-7.974 3.41-7.974 8.234 0 4.84 3.458 8.233 7.974 8.233 4.541-.008 7.975-3.393 7.975-8.233zM94.16 109.23h4.492v14.779h1.616V109.23h4.476v-1.341H94.16v1.341zm-2.077 10.537c0-5.996-8.855-3.135-8.855-7.797 0-1.867 1.567-2.909 3.458-2.885 2.238.024 3.32 1.406 3.507 2.537h1.753c-.275-2.214-2.125-3.919-5.187-3.919-3.111 0-5.163 1.818-5.163 4.315 0 6.068 8.855 3.07 8.855 7.813 0 1.657-1.317 2.974-3.547 2.974-2.61 0-3.596-1.616-3.733-2.949h-1.705c.09 2.464 2.214 4.314 5.446 4.314 3.402 0 5.171-2.214 5.171-4.403zm35.229 9.995h-2.99v5.421h2.99v-.727h-2.101V132.8h1.867v-.728h-1.867v-1.591h2.101v-.719zm-9.413.008v5.413h.889v-2.165h.678l1.245 2.165h1.058l-1.341-2.246c.913-.226 1.252-.913 1.252-1.551 0-.881-.63-1.624-1.915-1.624h-1.866v.008zm2.876 1.624c0 .541-.315.921-1.002.921h-.977v-1.818h.977c.687 0 1.002.355 1.002.897zm-5.47-1.632h-2.989v5.421h2.989v-.727h-2.101V132.8h1.867v-.728h-1.867v-1.591h2.101v-.719zm-6.544 5.429h.888v-5.413h-.888v2.319h-2.546v-2.319h-.888v5.413h.888v-2.367h2.546v2.367zm-9.018-5.429v4.031l-2.674-4.031h-.889v5.421h.889v-4.04l2.674 4.04h.889v-5.421h-.889zm-7.482 3.595h-1.769l.889-2.513.88 2.513zm.639 1.834h.937l-1.94-5.421h-1.025l-1.94 5.421h.93l.388-1.107h2.27l.38 1.107zm-8.702-5.486c-1.527 0-2.764 1.147-2.764 2.763 0 1.633 1.237 2.764 2.764 2.764a2.678 2.678 0 0 0 2.682-2.319v-.695H83.9v.711h2.036c-.13.913-.752 1.503-1.73 1.503-1.074 0-1.85-.768-1.85-1.964 0-1.195.776-1.955 1.85-1.955.647 0 1.164.275 1.447.816h1.067c-.42-1.058-1.39-1.624-2.521-1.624zm-9.462 2.763c0-1.22.776-1.987 1.85-1.987 1.075 0 1.85.759 1.85 1.987 0 1.22-.775 2.004-1.85 2.004-1.074 0-1.85-.784-1.85-2.004zm4.614 0c0-1.624-1.22-2.763-2.763-2.763-1.528 0-2.764 1.147-2.764 2.763 0 1.633 1.236 2.772 2.764 2.772 1.543 0 2.763-1.139 2.763-2.772zM69.16 129.77v5.413h2.723v-.719H70.05v-4.694h-.889zm-2.553 3.886c0-1.979-2.869-1.212-2.869-2.44 0-.525.396-.768.914-.759.557.016.88.347.912.719h.978c-.08-.93-.808-1.471-1.85-1.471-1.107 0-1.858.59-1.858 1.543 0 1.996 2.876 1.148 2.876 2.457 0 .46-.347.791-.978.791-.614 0-.929-.355-.97-.799h-.953c0 .961.832 1.551 1.915 1.551 1.22-.008 1.883-.784 1.883-1.592zm-12.104-3.886v5.413h.889v-2.165h.679l1.244 2.165h1.058l-1.34-2.246c.912-.226 1.252-.913 1.252-1.551 0-.881-.63-1.624-1.915-1.624h-1.867v.008zm2.877 1.624c0 .541-.316.921-1.002.921h-.986v-1.818h.986c.687 0 1.002.355 1.002.897zm-9.76 1.818c0 1.381.969 2.036 2.1 2.036 1.131 0 2.125-.655 2.125-2.036v-3.434h-.889v3.45c0 .84-.477 1.236-1.228 1.236s-1.22-.396-1.22-1.236v-3.45h-.889v3.434zm-6.99-.744c0-1.22.776-1.987 1.85-1.987 1.075 0 1.85.759 1.85 1.987 0 1.22-.775 2.004-1.85 2.004-1.066 0-1.85-.784-1.85-2.004zm4.622 0c0-1.624-1.22-2.763-2.764-2.763-1.527 0-2.763 1.147-2.763 2.763 0 1.633 1.236 2.772 2.763 2.772 1.544 0 2.764-1.139 2.764-2.772zm-10.116.76v1.963h.889v-1.963l1.793-3.45h-.977l-1.253 2.658-1.252-2.658h-.986l1.786 3.45z" fill="#2E303F"/></g><defs><clipPath id="clip0_601_6545"><path fill="#fff" transform="translate(10 5)" d="M0 0H140V130.24H0z"/></clipPath></defs></svg>