<svg width="160" height="140" fill="none" xmlns="http://www.w3.org/2000/svg"><path fill="#fff" d="M0 0H160V140H0z"/><g clip-path="url(#clip0_601_6564)"><path fill-rule="evenodd" clip-rule="evenodd" d="M93.94 31.409c2.093-.37 4.253-.568 6.356-.682 2.093-.104 4.139-.123 5.996-.114l-.189.71c-1.848-.009-3.875.01-5.959.114-2.075.105-4.206.304-6.262.673l.057-.701zm-1.175 4.377c2.093-.37 4.253-.569 6.356-.683 2.094-.104 4.14-.123 5.996-.113l-.189.71c-1.847-.01-3.874.01-5.959.114-2.074.104-4.206.313-6.261.672l.057-.7zm-1.175 4.367c2.094-.37 4.253-.569 6.356-.682 2.094-.105 4.14-.124 5.997-.114l-.19.71c-1.847-.01-3.874.01-5.958.114-2.075.104-4.206.313-6.262.672l.057-.7zm-1.165 4.376c2.093-.37 4.253-.568 6.356-.682 2.094-.104 4.14-.123 5.997-.114l-.19.71c-1.847-.009-3.874.01-5.958.114-2.075.105-4.206.313-6.262.673l.057-.701zm-1.175 4.367c2.094-.37 4.254-.568 6.357-.682a109.73 109.73 0 0 1 5.996-.114l-.19.71c-1.847-.009-3.874.01-5.958.114-2.075.105-4.206.313-6.262.673l.057-.701zm-.227 4.225a56.56 56.56 0 0 1 5.892-.55c1.932-.085 3.808-.104 5.532-.094l-.189.71c-1.705-.01-3.572.01-5.495.095-1.913.085-3.883.246-5.806.54l.066-.701zm-.928 4.329a59.324 59.324 0 0 1 5.769-.521 106.48 106.48 0 0 1 5.409-.085l-.19.71c-1.667-.01-3.495.01-5.38.085-1.867.086-3.8.237-5.684.512l.076-.701zm-10.762 7.503c2.814-1.762 6.404-2.71 10.099-3.202 3.656-.493 7.436-.55 10.656-.53l-.189.71c-3.192-.01-6.934.047-10.562.53-3.59.483-7.058 1.383-9.738 3.06l-.266-.568zm5.495-10.932l1.743-.294 1.231.843.152 1.582-1.004 1.582-1.687.843-1.582-.293-.739-1.289.455-1.686 1.43-1.288zM69.774 36.486c-1.866-.36-3.884-.558-5.902-.672a105.509 105.509 0 0 0-5.901-.114l.19-.71c1.865-.01 3.902.01 5.939.113 2.046.114 4.102.313 5.996.682l-.322.702zm-1.175 4.377c-1.866-.36-3.883-.559-5.901-.673a105.606 105.606 0 0 0-5.902-.113l.19-.71c1.866-.01 3.902.009 5.94.113 2.045.114 4.1.313 5.995.682l-.322.701zm-1.165 4.367c-1.866-.36-3.884-.559-5.901-.673a105.509 105.509 0 0 0-5.902-.113l.19-.71c1.866-.01 3.902.009 5.939.113 2.046.114 4.102.313 5.996.682l-.322.701zm-1.847 4.253c-1.79-.303-3.695-.473-5.599-.568-1.913-.095-3.798-.104-5.541-.095l.19-.71c1.752-.01 3.656.01 5.57.095 1.922.094 3.864.265 5.674.577l-.294.701zm-3.031 4.102a59.799 59.799 0 0 0-4.708-.34 107.668 107.668 0 0 0-4.566-.058l.19-.71c1.458-.01 3.011 0 4.593.057 1.592.056 3.212.16 4.765.34l-.274.711zm-.758 4.424c-1.61-.209-3.268-.322-4.907-.388a103.144 103.144 0 0 0-4.784-.067l.19-.71c1.525-.01 3.154 0 4.802.066 1.668.066 3.354.18 4.964.389l-.265.71zm8.677 3.145l-.076-.076.578-.578.076.076-.578.578zm-3.06 3.07c-2.065-1.062-4.822-1.64-7.73-1.952-2.936-.313-6.024-.35-8.743-.341l.19-.71c2.747-.01 5.854.028 8.81.34 2.974.313 5.797.91 7.937 2.008l-.464.654zm3.534-32.105c-1.867-.36-3.884-.558-5.902-.672a105.509 105.509 0 0 0-5.902-.114l.19-.71c1.866-.01 3.903.01 5.94.113 2.045.114 4.101.313 5.996.683l-.322.7zm10.912-1.08c-1.042-1.184-2.406-2.093-3.997-2.784L72.9 46.812c-.872 3.259.578 5.002.502 6.498-.114 2.208-1.137 3.913-2.264 4.955v-3.903c-.72-.502-1.724-.606-2.757-.284a4.982 4.982 0 0 0-2.586 1.951v3.524c-1.203-1.099-2.292-2.359-2.188-3.865.209-2.89 4.415-5.75 5.258-8.886l5.295-19.75c-5.551-1.28-12.381-1.043-17.534-1.043L45.57 67.264c13.271-.616 21.683 1.06 25.245 5.03L81.861 31.04zM44.415 71.566c10.486-1.26 21.286-.654 25.975 2.273l.076-.293c-3.543-3.97-11.965-5.646-25.227-5.03l-.824 3.05zm71.17-45.139a30.46 30.46 0 0 0-2.652-.34l-11.415 42.599c-7.21-1.014-21.959-.322-29.376 4.869l-.076.294c7.427-3.477 23.408-3.818 31.185-1.374l12.334-46.048zM83.529 31.04c1.676-1.184 3.533-2.094 5.484-2.785L83.263 49.7c-.625 2.35-2.595 4.519-3.116 6.451-.502 1.885.616 3.41 2.491 3.41 1.885 0 3.818-1.525 4.32-3.41.54-2.008-.303-4.035.34-6.45l6.073-22.65c6.233-1.28 12.94-1.043 18.093-1.043l-11.045 41.255c-12.94-.616-22.252 1.06-27.936 5.03L83.53 31.04z" fill="#1A1A1A"/><path d="M146.088 96.299l-4.424-5.817V96.3h-3.211V83.13h3.201v5.779l4.386-5.779h3.771l-5.097 6.451L150 96.3h-3.912zm-18.179-2.795c1.052 0 1.895-.35 2.52-1.051.635-.701.947-1.63.947-2.776 0-1.165-.312-2.093-.947-2.785-.635-.691-1.468-1.042-2.52-1.042-1.061 0-1.913.341-2.539 1.033-.634.691-.947 1.62-.947 2.794 0 1.165.313 2.094.947 2.785.626.692 1.469 1.042 2.539 1.042zm0 2.927c-1.241 0-2.368-.284-3.401-.862a6.504 6.504 0 0 1-2.453-2.406c-.606-1.032-.909-2.188-.909-3.476 0-1.289.303-2.444.909-3.467a6.41 6.41 0 0 1 2.453-2.397c1.033-.578 2.17-.862 3.401-.862 1.232 0 2.368.284 3.401.862a6.299 6.299 0 0 1 2.435 2.397c.596 1.023.89 2.178.89 3.467 0 1.288-.303 2.444-.9 3.476a6.316 6.316 0 0 1-2.435 2.406 6.887 6.887 0 0 1-3.391.862zm-16.776-2.927c1.051 0 1.894-.35 2.519-1.051.635-.701.948-1.63.948-2.776 0-1.165-.313-2.093-.948-2.785-.634-.691-1.468-1.042-2.519-1.042-1.061 0-1.914.341-2.539 1.033-.635.691-.947 1.62-.947 2.794 0 1.165.312 2.094.947 2.785.625.692 1.478 1.042 2.539 1.042zm0 2.927c-1.241 0-2.369-.284-3.401-.862a6.506 6.506 0 0 1-2.454-2.406c-.606-1.032-.909-2.188-.909-3.476 0-1.289.303-2.444.909-3.467a6.412 6.412 0 0 1 2.454-2.397c1.032-.578 2.169-.862 3.401-.862 1.241 0 2.368.284 3.4.862a6.292 6.292 0 0 1 2.435 2.397c.597 1.023.89 2.178.89 3.467 0 1.288-.303 2.444-.899 3.476a6.323 6.323 0 0 1-2.435 2.406 6.862 6.862 0 0 1-3.391.862zM96.09 93.713c.54 0 .956-.123 1.25-.37.294-.246.445-.597.445-1.06 0-.465-.151-.825-.464-1.09-.303-.265-.73-.398-1.27-.398h-2.32v2.908h2.359v.01zm-2.368-5.248h2.103c.52 0 .928-.114 1.212-.35.284-.228.426-.57.426-1.024 0-.455-.142-.796-.426-1.032-.284-.237-.682-.36-1.213-.36h-2.102v2.766zm4.764 1.08c.758.16 1.374.54 1.838 1.136.464.597.692 1.27.692 2.037 0 1.099-.389 1.97-1.156 2.614-.767.645-1.838.967-3.211.967h-6.13V83.13h5.921c1.336 0 2.387.304 3.145.92.758.615 1.137 1.44 1.137 2.49 0 .778-.199 1.422-.606 1.933-.417.521-.957.872-1.63 1.07zM81.54 85.708v2.662h4.292v2.472h-4.292v2.89h4.86v2.567h-8.061V83.13h8.06V85.7H81.54v.01zm-7.559 10.59h-3.202l-5.362-8.118V96.3h-3.201V83.13h3.201l5.362 8.157V83.13h3.202V96.3zM57.838 83.132V96.29h-3.202V83.131h3.202zM47.048 87.3a2.432 2.432 0 0 0-1.023-1.004c-.445-.227-.966-.35-1.563-.35-1.032 0-1.866.34-2.491 1.023-.625.682-.938 1.591-.938 2.728 0 1.213.332 2.16.985 2.842.654.682 1.563 1.023 2.71 1.023.786 0 1.449-.199 1.998-.597.54-.397.938-.975 1.194-1.724h-4.064v-2.358h6.972v2.983a6.383 6.383 0 0 1-1.212 2.236c-.569.692-1.289 1.241-2.17 1.667-.871.427-1.866.635-2.965.635-1.297 0-2.463-.284-3.476-.853a6.018 6.018 0 0 1-2.378-2.368c-.568-1.013-.852-2.17-.852-3.467 0-1.298.284-2.463.852-3.476a6.08 6.08 0 0 1 2.368-2.378c1.014-.569 2.17-.853 3.467-.853 1.573 0 2.9.38 3.988 1.147 1.08.757 1.8 1.818 2.15 3.163h-3.552V87.3zm-13.091 9h-3.211l-5.362-8.119V96.3h-3.202V83.13h3.202l5.362 8.157V83.13h3.201V96.3h.01zm-20.755-10.59v2.661h4.291v2.472h-4.291v2.89h4.86v2.567H10V83.13h8.061V85.7h-4.86v.01z" fill="#1A1A1A"/><path d="M84.826 108.812c0 .048-.01.104-.028.171a1.688 1.688 0 0 1-.066.199c-.029.066-.057.132-.095.189-.038.057-.066.114-.095.161-.019.029-.057.066-.095.114-.047.047-.094.104-.151.17a3.358 3.358 0 0 1-.19.199c-.066.076-.142.142-.218.218-.227.218-.464.426-.7.644a5.852 5.852 0 0 1-.749.559c-.265.161-.53.294-.814.398a2.624 2.624 0 0 1-.91.152.989.989 0 0 1-.417-.095 1.294 1.294 0 0 1-.388-.246 1.387 1.387 0 0 1-.313-.379 1.38 1.38 0 0 1-.19-.474c-.075.123-.17.246-.283.388-.114.143-.247.275-.38.417-.141.133-.283.265-.425.389a4.722 4.722 0 0 1-.417.312c-.086.067-.2.123-.322.19-.124.066-.266.123-.398.18-.142.057-.285.094-.427.132a1.513 1.513 0 0 1-.397.048.837.837 0 0 1-.502-.161 1.374 1.374 0 0 1-.36-.408 2.001 2.001 0 0 1-.209-.511 1.915 1.915 0 0 1-.066-.493c0-.265.038-.53.114-.805a6.33 6.33 0 0 1 .71-1.554 7.38 7.38 0 0 1 .445-.634 5.06 5.06 0 0 1 .55-.578c.208-.19.435-.36.663-.512.227-.151.464-.274.691-.36.228-.094.426-.132.606-.132.095 0 .2 0 .294.009l.303.029a1.529 1.529 0 0 1 .53.151.565.565 0 0 1 .162.171c.057.085.114.17.16.265.048.095.096.189.133.275a.61.61 0 0 1 .057.218c0 .113-.019.246-.047.397-.038.152-.076.313-.114.484-.047.17-.085.341-.113.511-.038.18-.057.341-.057.502 0 .114.019.227.047.341.029.114.076.218.133.313.057.094.132.17.218.237.085.056.18.094.284.094.237 0 .474-.047.7-.132.228-.086.465-.209.702-.37a6.76 6.76 0 0 0 .7-.549c.228-.209.465-.436.702-.682.01 0 .038-.029.094-.095l.2-.199a1.61 1.61 0 0 1 .246-.199c.085-.057.16-.095.227-.095.114 0 .19.038.227.105.02.094.038.199.038.331zm-5.456-.616c0-.037-.01-.075-.019-.123a1.932 1.932 0 0 0-.057-.132c-.019-.048-.047-.076-.076-.114-.028-.028-.056-.047-.075-.047-.266 0-.502.075-.72.208a4.415 4.415 0 0 0-.682.578 4.053 4.053 0 0 0-.427.53 6.505 6.505 0 0 0-.739 1.469 2.112 2.112 0 0 0-.123.672c0 .048 0 .095.01.142.01.048.019.086.038.124a.375.375 0 0 0 .075.094.237.237 0 0 0 .124.038c.151 0 .322-.047.52-.151a3.4 3.4 0 0 0 .578-.379 5.07 5.07 0 0 0 .569-.55c.18-.208.34-.417.464-.634.152-.266.284-.54.388-.825.095-.284.152-.587.152-.9zm-2.605.692a.458.458 0 0 1-.057.199c-.038.076-.095.17-.161.275a1.445 1.445 0 0 1-.161.218c-.066.085-.142.17-.208.255-.076.086-.152.171-.218.256-.076.085-.133.152-.2.218-.227.227-.473.455-.729.672-.255.218-.53.408-.814.578a4.852 4.852 0 0 1-.872.408 2.85 2.85 0 0 1-.928.151c-.275 0-.521-.047-.72-.151a1.092 1.092 0 0 1-.483-.483 1.688 1.688 0 0 1-.123-.341 3.603 3.603 0 0 1-.114-.503c-.038-.18-.066-.35-.095-.521-.028-.17-.038-.312-.047-.416 0-.076-.01-.152-.02-.247a2.238 2.238 0 0 0-.037-.265.604.604 0 0 0-.057-.208c-.019-.057-.047-.086-.085-.086a.252.252 0 0 0-.114.029c-.076.038-.19.132-.36.275a7.94 7.94 0 0 0-.568.568c-.209.227-.436.493-.673.786-.237.294-.464.606-.672.929-.085.123-.161.255-.246.397-.086.143-.171.294-.247.446-.085.151-.16.293-.237.435a5.274 5.274 0 0 1-.218.37.527.527 0 0 1-.16.161.993.993 0 0 1-.18.114.652.652 0 0 1-.162.056c-.047.01-.085.019-.104.019a.462.462 0 0 1-.246-.066 1.063 1.063 0 0 1-.209-.152.591.591 0 0 1-.132-.208.53.53 0 0 1-.047-.237c0-.047.009-.123.018-.237.02-.113.029-.246.057-.388.02-.142.048-.294.067-.455.019-.151.037-.303.056-.435.029-.256.067-.54.095-.844.038-.303.067-.615.095-.918.028-.313.057-.616.085-.9.029-.294.047-.559.057-.796 0-.076.01-.18.019-.303a81.498 81.498 0 0 0 .057-.9l.028-.493.029-.445c.01-.142.01-.256.019-.35a3.08 3.08 0 0 1 .066-.607c.019-.094.047-.189.085-.293.038-.095.076-.209.133-.322a.415.415 0 0 1 .094-.143.596.596 0 0 1 .162-.142c.066-.047.132-.075.208-.113a.64.64 0 0 1 .227-.048c.17 0 .313.057.427.18.123.114.18.285.18.493 0 .066-.01.142-.02.237-.009.104-.028.199-.047.293-.019.095-.038.18-.047.266-.02.085-.02.123-.02.151-.008.057-.028.161-.046.303-.02.142-.048.322-.067.521-.028.199-.057.417-.085.654a779.884 779.884 0 0 1-.17 1.402c-.029.227-.057.426-.076.597-.02.18-.038.322-.048.436-.01.113-.019.17-.019.189l-.047.341c-.019.142-.038.294-.066.455-.02.151-.038.303-.057.435-.02.133-.029.237-.038.294.038-.047.085-.123.142-.218.057-.085.114-.18.18-.274.057-.095.123-.18.18-.266.057-.085.095-.142.123-.18.067-.094.133-.208.228-.322.085-.123.18-.246.274-.369.095-.123.2-.246.303-.37.105-.123.209-.236.303-.331.124-.133.266-.265.417-.398.152-.133.322-.256.493-.37.17-.113.35-.208.53-.274.18-.076.35-.104.521-.104.048 0 .095.009.162.028a.882.882 0 0 1 .379.227.589.589 0 0 1 .123.19c.047.142.094.322.132.521.038.208.066.426.104.644.029.218.067.445.095.663.038.218.066.417.104.587.038.171.085.313.142.427.057.104.124.161.2.161.113 0 .208 0 .302-.01.095-.009.19-.019.275-.038.085-.019.18-.047.275-.075.095-.029.19-.076.293-.124a7.32 7.32 0 0 0 .569-.303c.16-.094.313-.199.455-.303.142-.104.284-.227.435-.35.142-.133.313-.285.502-.455.2-.18.38-.332.521-.445.152-.114.256-.171.323-.171.047 0 .085.01.123.029a.17.17 0 0 1 .066.075.187.187 0 0 1 .028.095c-.01 0-.01.029-.01.057zm-9.596-.18c0 .085-.01.152-.038.208a.556.556 0 0 1-.104.171 1.575 1.575 0 0 1-.18.189 6.505 6.505 0 0 0-.265.256l-.53.531c-.115.113-.21.208-.295.284-.085.076-.16.151-.246.218-.076.066-.16.132-.246.208-.085.066-.19.152-.303.256-.266.218-.521.426-.768.616-.255.189-.502.369-.739.521a4.644 4.644 0 0 1-2.472.72c-.303 0-.568-.057-.796-.171a1.832 1.832 0 0 1-.587-.445 1.764 1.764 0 0 1-.36-.654 2.396 2.396 0 0 1-.123-.786c0-.521.104-1.052.331-1.582a6.948 6.948 0 0 1 .91-1.563c.095-.133.208-.265.34-.407.133-.142.266-.266.408-.379.142-.114.294-.209.445-.285.152-.075.304-.113.446-.113.094 0 .19.028.274.085.095.057.18.123.266.218.085.095.17.199.246.322.076.123.142.256.208.398.133.275.19.483.19.606 0 .066-.01.152-.02.246-.018.095-.037.19-.075.275a.976.976 0 0 1-.151.228.322.322 0 0 1-.247.094.499.499 0 0 1-.37-.142 1.18 1.18 0 0 1-.236-.331 2.062 2.062 0 0 1-.152-.37 1.254 1.254 0 0 0-.104-.256.925.925 0 0 0-.303.209 3.325 3.325 0 0 0-.313.379 4.275 4.275 0 0 0-.293.511c-.095.19-.17.389-.247.607a7.298 7.298 0 0 0-.17.653 4.038 4.038 0 0 0-.066.673.73.73 0 0 0 .227.53c.17.171.322.256.464.256.455 0 .9-.085 1.317-.256.426-.17.834-.388 1.222-.672.265-.19.54-.398.834-.635.284-.237.606-.512.947-.843.123-.123.246-.237.379-.351a3.38 3.38 0 0 1 .72-.502.839.839 0 0 1 .312-.075c.209.018.313.132.313.35zm-6.593-.009c0 .075-.057.198-.161.397a9.754 9.754 0 0 1-.692.891 9.687 9.687 0 0 1-.815.843c-.293.265-.587.511-.9.739a7.76 7.76 0 0 1-.947.587 6.185 6.185 0 0 1-.956.389 3.293 3.293 0 0 1-.938.142c-.682 0-1.222-.19-1.601-.578-.38-.389-.578-.966-.578-1.753 0-.312.019-.615.066-.919a5.21 5.21 0 0 1 .218-.9c.104-.293.237-.587.398-.871.161-.284.37-.559.606-.834.085-.094.19-.199.313-.284.114-.095.246-.17.379-.246.132-.076.274-.133.417-.171.142-.047.293-.066.435-.066.209 0 .398.038.55.123.151.076.284.19.379.322.104.133.17.284.218.464.047.171.075.36.075.55 0 .35-.132.729-.398 1.108-.265.389-.634.777-1.098 1.175-.152.123-.332.265-.53.417-.2.151-.427.322-.673.511a.71.71 0 0 0 .085.284.788.788 0 0 0 .208.228c.085.066.19.123.313.161.123.038.256.057.407.057.2 0 .407-.029.625-.076.218-.048.436-.114.654-.199a5.387 5.387 0 0 0 1.194-.644c.293-.209.577-.445.852-.692.275-.246.54-.502.796-.758l.322-.322c.218-.199.407-.293.568-.293.086 0 .133.028.17.085a.404.404 0 0 1 .039.133zm-4.69-1.109c0-.085-.009-.17-.028-.256-.019-.075-.047-.132-.085-.151a.753.753 0 0 0-.436.17 2.102 2.102 0 0 0-.445.493 3.702 3.702 0 0 0-.379.777c-.114.303-.19.634-.246 1.004.19-.142.379-.284.568-.445.19-.152.36-.313.521-.483.152-.171.284-.341.38-.531.103-.17.15-.369.15-.578zm-4.67-3.656c0 .066-.009.104-.028.132-.019.029-.038.067-.057.104-.028.038-.047.086-.085.133a.85.85 0 0 0-.076.246c-.028.114-.047.209-.066.294a9.418 9.418 0 0 1-.057.237 1.885 1.885 0 0 0-.038.227 2.21 2.21 0 0 0-.019.275c0 .18 0 .36-.01.54-.009.18-.018.36-.037.549-.02.19-.038.389-.057.597-.019.209-.047.426-.076.673-.038.341-.076.701-.123 1.08-.038.379-.057.776-.057 1.174v.379c0 .142 0 .294.01.464.01.161.01.332.028.502.01.171.029.332.047.493.02.019.038.038.048.038a2.141 2.141 0 0 1 .379.275c.066.066.094.161.094.274a.598.598 0 0 1-.075.266c-.057.094-.123.18-.209.255-.085.076-.18.152-.293.199a.841.841 0 0 1-.341.076.81.81 0 0 1-.578-.218 1.457 1.457 0 0 1-.36-.559 3.55 3.55 0 0 1-.18-.758 7.998 7.998 0 0 1-.047-.824v-.208c0-.114.009-.284.037-.512.02-.227.048-.492.086-.786.028-.294.075-.606.113-.928.048-.332.086-.654.133-.966.047-.313.095-.607.133-.881.047-.275.075-.503.113-.673a3.786 3.786 0 0 0-.199.265c-.085.114-.18.246-.293.379-.105.142-.218.294-.332.445-.114.152-.227.313-.341.455a7.863 7.863 0 0 1-.313.426 9.74 9.74 0 0 1-.246.332 18.54 18.54 0 0 0-.436.616c-.142.208-.284.416-.435.634-.01.01-.029.038-.057.076a1.564 1.564 0 0 0-.085.133c-.029.047-.067.094-.095.151a.505.505 0 0 1-.085.104c-.285.379-.588.616-.929.711a2.506 2.506 0 0 1-.52-.218 1.303 1.303 0 0 1-.323-.265 1.39 1.39 0 0 1-.208-.313 4.663 4.663 0 0 0-.2-.35 5.516 5.516 0 0 0-.217-.37c-.066-.113-.123-.208-.17-.303a8.549 8.549 0 0 1-.294-.597 7.328 7.328 0 0 1-.256-.634c-.057-.18-.104-.332-.152-.465-.038-.123-.075-.246-.113-.359l-.114-.342c-.038-.113-.076-.255-.123-.407-.01.029-.028.095-.047.209-.02.113-.057.246-.095.397-.038.161-.076.341-.123.54-.048.199-.086.398-.133.597-.047.209-.085.408-.133.597-.037.199-.075.369-.113.53a6.394 6.394 0 0 0-.085.389c-.02.104-.038.161-.038.18a3.54 3.54 0 0 0-.124.909c0 .057 0 .152-.009.284 0 .124-.01.266-.01.398 0 .142-.009.284-.009.417v.303a.568.568 0 0 1-.057.218 1.21 1.21 0 0 1-.151.256.914.914 0 0 1-.218.208.464.464 0 0 1-.265.086c-.133 0-.247-.01-.341-.019a.635.635 0 0 1-.247-.076.545.545 0 0 1-.18-.152.768.768 0 0 1-.142-.265.741.741 0 0 1-.057-.275c-.01-.066-.01-.142-.01-.237v-.36c0-.047.02-.132.048-.265.029-.132.066-.293.114-.483.047-.189.095-.388.151-.606.057-.218.114-.436.17-.644.058-.209.115-.408.162-.597.047-.19.095-.341.123-.455.057-.199.114-.407.17-.625.057-.218.124-.436.18-.654l.171-.653c.057-.218.114-.427.161-.625.029-.199.047-.351.076-.436.028-.104.057-.228.095-.341.038-.123.085-.237.151-.341a.799.799 0 0 1 .209-.256.465.465 0 0 1 .293-.104c.322 0 .578.038.777.104.199.076.35.18.474.331.113.152.208.342.274.578.067.237.133.521.209.853.019.095.047.17.076.246.028.067.056.152.094.228.133.416.303.824.493 1.24.199.408.417.815.672 1.213.105-.085.2-.189.285-.322.085-.133.18-.294.284-.474.095-.161.18-.322.275-.464.094-.142.199-.284.322-.417.047-.047.113-.132.208-.246.095-.123.209-.256.332-.417.123-.161.265-.322.398-.502.142-.18.274-.341.397-.502.123-.161.237-.303.332-.417.095-.123.17-.208.208-.265.048-.047.076-.095.105-.123.028-.029.056-.066.094-.104.048-.067.114-.161.218-.294.104-.133.209-.275.313-.417.113-.151.218-.293.322-.426.104-.133.18-.237.227-.303.057-.085.161-.123.322-.123a.6.6 0 0 1 .266.075c.094.048.189.114.265.18.085.076.151.152.199.228a.374.374 0 0 1 .085.208l-.028.01z" fill="#EA9464"/><path d="M119.592 109.182c0 .095-.019.208-.066.341a2.75 2.75 0 0 1-.228.483c-.104.18-.256.388-.436.616-.18.227-.407.473-.672.748a5.037 5.037 0 0 1-1.099.843 3.409 3.409 0 0 1-.644.275 2.013 2.013 0 0 1-.663.104c-.294 0-.578-.047-.834-.151a1.859 1.859 0 0 1-.672-.474 2.447 2.447 0 0 1-.455-.805c-.114-.322-.161-.701-.161-1.146 0-.285.009-.578.038-.891.028-.303.066-.616.104-.928.038-.313.095-.626.142-.929.057-.303.104-.596.161-.881.038-.189.066-.36.095-.511.028-.152.047-.294.066-.445.019-.152.047-.313.076-.474.028-.171.066-.369.104-.606a1.29 1.29 0 0 1 .104-.322c.048-.105.114-.19.18-.275a.779.779 0 0 1 .597-.256c.294 0 .512.142.654.417l-.067.341a32.95 32.95 0 0 1-.142.673c-.057.255-.123.54-.18.843a67.21 67.21 0 0 0-.199.956c-.066.332-.123.673-.18 1.014-.056.341-.094.692-.132 1.023a8.873 8.873 0 0 0-.048.985c0 .237.019.455.048.654.028.199.085.369.161.502.076.142.17.246.293.322a.81.81 0 0 0 .436.114c.171 0 .341-.038.521-.104.18-.067.36-.162.54-.275.18-.114.36-.237.531-.389.17-.142.341-.293.492-.435.152-.152.294-.294.408-.427.123-.142.217-.255.293-.36a1.98 1.98 0 0 0 .114-.151c.047-.057.095-.104.142-.152.057-.047.114-.085.17-.123a.52.52 0 0 1 .199-.047c.057 0 .105.019.143.066a.453.453 0 0 1 .066.237zm-5.172-.37c0 .048-.01.105-.029.171-.019.066-.038.133-.066.199-.029.066-.057.133-.095.189-.038.057-.066.114-.095.161-.018.029-.056.067-.094.114-.048.047-.095.104-.152.171-.057.066-.123.132-.189.199-.067.075-.142.142-.218.217-.228.218-.464.427-.701.645a5.938 5.938 0 0 1-.749.558c-.265.161-.53.294-.814.398a2.627 2.627 0 0 1-.91.152.987.987 0 0 1-.416-.095 1.289 1.289 0 0 1-.389-.246 1.367 1.367 0 0 1-.312-.379 1.377 1.377 0 0 1-.19-.474c-.076.123-.17.247-.284.389-.114.142-.246.274-.379.416a8.248 8.248 0 0 1-.426.389 4.737 4.737 0 0 1-.417.312c-.085.067-.199.124-.322.19s-.265.123-.398.18a3.664 3.664 0 0 1-.426.133 1.555 1.555 0 0 1-.398.047.836.836 0 0 1-.502-.161 1.362 1.362 0 0 1-.36-.407 2.035 2.035 0 0 1-.275-1.005c0-.265.038-.53.114-.805a6.292 6.292 0 0 1 .71-1.553c.152-.237.294-.446.445-.635a5.18 5.18 0 0 1 .55-.578c.208-.189.436-.36.663-.511.237-.152.464-.275.692-.36.227-.095.426-.133.606-.133.095 0 .199 0 .293.009l.304.029c.094.009.199.028.284.057.095.028.17.057.246.094a.584.584 0 0 1 .161.171c.057.085.114.17.161.265.048.095.095.19.133.275a.614.614 0 0 1 .057.218c0 .113-.019.246-.048.398-.028.151-.076.312-.113.483-.048.17-.086.341-.114.511-.038.18-.057.341-.057.502 0 .114.019.228.047.341.029.114.076.218.133.313a.866.866 0 0 0 .218.237c.085.057.18.095.284.095.237 0 .474-.048.701-.133.227-.085.464-.208.701-.37.237-.151.464-.341.701-.549.237-.208.464-.436.701-.682.01 0 .038-.028.095-.095l.199-.199c.076-.075.161-.142.246-.199.085-.056.161-.094.227-.094.114 0 .19.038.228.104.019.095.038.199.038.331zm-5.466-.615c0-.038-.01-.076-.019-.123-.019-.048-.029-.095-.057-.133-.019-.047-.047-.076-.076-.114-.028-.028-.057-.047-.076-.047-.265 0-.511.076-.72.208a4.467 4.467 0 0 0-.682.578 4.086 4.086 0 0 0-.426.531 6.7 6.7 0 0 0-.417.71 6.644 6.644 0 0 0-.322.758 2.127 2.127 0 0 0-.123.673c0 .047 0 .094.01.142a.492.492 0 0 0 .037.123c.019.038.048.066.076.094a.239.239 0 0 0 .123.038c.152 0 .322-.047.521-.151.19-.095.389-.228.578-.379a4.7 4.7 0 0 0 1.033-1.184c.151-.265.284-.54.388-.824.104-.285.152-.588.152-.9zm-2.387.511a.57.57 0 0 1-.142.379 1.787 1.787 0 0 1-.18.19 5.57 5.57 0 0 0-.266.255l-.53.531a7.698 7.698 0 0 1-.294.284c-.085.076-.161.152-.246.218-.076.066-.161.133-.246.208-.086.067-.19.152-.304.256-.265.218-.521.426-.767.616-.256.189-.502.369-.739.521a4.639 4.639 0 0 1-2.472.72c-.303 0-.569-.057-.796-.171a1.803 1.803 0 0 1-.587-.445 1.755 1.755 0 0 1-.36-.654 2.393 2.393 0 0 1-.123-.786c0-.521.104-1.051.331-1.582.218-.53.521-1.051.91-1.563a4.1 4.1 0 0 1 .341-.407 3.78 3.78 0 0 1 .407-.379c.142-.114.294-.208.445-.284a1 1 0 0 1 .445-.114c.095 0 .19.028.275.085.095.057.18.123.265.218a2.2 2.2 0 0 1 .247.322c.075.123.142.256.208.398.133.275.19.483.19.606 0 .067-.01.152-.019.247-.019.094-.038.189-.076.274a.955.955 0 0 1-.152.228.321.321 0 0 1-.246.094.5.5 0 0 1-.37-.142 1.162 1.162 0 0 1-.236-.331 1.965 1.965 0 0 1-.152-.37 1.251 1.251 0 0 0-.104-.255.915.915 0 0 0-.303.208 3.326 3.326 0 0 0-.313.379 4.412 4.412 0 0 0-.294.511 5.26 5.26 0 0 0-.246.607 7.457 7.457 0 0 0-.17.653 4.06 4.06 0 0 0-.067.673.73.73 0 0 0 .228.53c.17.171.322.256.464.256.455 0 .9-.085 1.317-.256.426-.17.833-.388 1.222-.672.265-.19.54-.398.833-.635.284-.237.607-.511.948-.843.123-.123.246-.237.378-.35a3.372 3.372 0 0 1 .72-.502.824.824 0 0 1 .313-.076c.208.019.313.132.313.35zm-6.755.294c0 .095-.037.208-.104.35-.066.142-.17.304-.284.474a8.28 8.28 0 0 1-.436.559c-.17.199-.35.398-.55.616a9.433 9.433 0 0 1-.69.672 8.98 8.98 0 0 1-.796.635c-.275.199-.55.36-.815.464a1.92 1.92 0 0 1-.767.161c-.285 0-.521-.047-.73-.142a1.65 1.65 0 0 1-.53-.379 2.012 2.012 0 0 1-.36-.559 3.87 3.87 0 0 1-.218-.663 4.632 4.632 0 0 1-.114-.71 8.78 8.78 0 0 1-.028-.682c0-.086.01-.209.019-.379.01-.171.028-.341.047-.531a8.39 8.39 0 0 1 .076-.54c.028-.17.047-.312.076-.407.056-.199.199-.379.416-.559.209-.17.446-.256.701-.256.266 0 .389.152.389.474 0 .151-.01.303-.038.474-.028.17-.057.331-.085.492-.048.294-.085.559-.105.796a7.973 7.973 0 0 0-.028.625 4.214 4.214 0 0 0 .142 1.108c.048.152.104.275.17.37.076.095.152.132.247.132.123 0 .246-.009.37-.028.123-.019.284-.085.464-.18.34-.189.71-.445 1.099-.758.142-.113.293-.246.464-.398.17-.151.35-.312.52-.473.171-.161.332-.322.484-.474.151-.151.275-.294.36-.398.01-.019.028-.047.047-.076.019-.028.047-.056.076-.094a.854.854 0 0 1 .095-.086.191.191 0 0 1 .094-.028c.067 0 .114.01.142.028.029.019.067.076.095.171a.273.273 0 0 1 .085.199zm-3.741-4.945c0 .133-.02.256-.057.379a1.115 1.115 0 0 1-.17.332c-.152.208-.39.322-.702.322-.113 0-.227-.01-.34-.029a1.503 1.503 0 0 1-.313-.085.832.832 0 0 1-.228-.133c-.056-.057-.094-.123-.094-.189 0-.123.028-.256.094-.398.067-.142.142-.265.247-.379.104-.123.218-.218.331-.294a.67.67 0 0 1 .35-.113c.143 0 .266.009.37.028a.729.729 0 0 1 .275.095.44.44 0 0 1 .17.18c.048.066.067.161.067.284zm-1.781 4.5a.808.808 0 0 1-.048.246c-.028.095-.066.18-.104.265a2.077 2.077 0 0 1-.275.445c-.132.161-.274.332-.426.512-.16.18-.322.36-.492.53-.17.18-.35.341-.53.503-.18.161-.36.303-.54.426-.143.095-.276.18-.408.265a3.354 3.354 0 0 1-.407.218 2.33 2.33 0 0 1-.436.151 2.083 2.083 0 0 1-.502.057c-.303 0-.55-.057-.749-.18a1.47 1.47 0 0 1-.483-.483 2.405 2.405 0 0 1-.284-.691 7.164 7.164 0 0 1-.152-.805 5.645 5.645 0 0 0-.17-.9c-.066-.218-.142-.332-.237-.332a.541.541 0 0 0-.237.057c-.076.038-.17.123-.284.246a7.87 7.87 0 0 0-.436.54l-.682.957c-.094.132-.218.284-.35.455-.133.17-.284.331-.436.483a4.504 4.504 0 0 1-.455.407 1.524 1.524 0 0 1-.416.246c-.503-.113-.758-.596-.758-1.449 0-.218.019-.54.076-.957.018-.189.047-.388.075-.597.029-.208.067-.416.114-.625.047-.208.104-.417.161-.616.066-.198.142-.388.227-.558a.879.879 0 0 1 .161-.228.666.666 0 0 1 .38-.18c.066-.009.132-.009.198-.009.057 0 .123.009.17.047a.502.502 0 0 1 .152.133.807.807 0 0 1 .142.483c0 .095-.01.18-.028.265-.019.085-.038.171-.066.265-.029.095-.057.18-.086.285a32.05 32.05 0 0 1-.094.341 6.106 6.106 0 0 1-.086.322c-.038.132-.075.265-.113.416-.038.143-.076.285-.105.417a3.661 3.661 0 0 0-.056.341c.075-.085.151-.189.246-.312s.19-.266.294-.408c.104-.142.208-.293.322-.445.113-.151.218-.294.322-.436.142-.18.275-.341.417-.502.142-.151.284-.293.426-.407.151-.114.313-.199.492-.275.18-.066.37-.094.597-.094.256 0 .474.056.635.161.161.104.294.255.398.445.094.189.17.417.218.672.047.256.085.54.113.843.02.152.038.323.057.484.029.161.067.312.123.445.048.132.124.246.2.331.084.086.189.133.312.133.18 0 .388-.047.606-.152.218-.094.445-.227.692-.407a6.67 6.67 0 0 0 .739-.597c.255-.227.502-.473.757-.729.076-.085.161-.171.228-.246.075-.086.142-.161.218-.228.066-.066.132-.123.199-.161a.392.392 0 0 1 .189-.057c.028 0 .057 0 .085.01a.6.6 0 0 1 .095.038.258.258 0 0 1 .066.075c.02 0 .029.048.029.105z" fill="#EA9464"/></g><defs><clipPath id="clip0_601_6564"><path fill="#fff" transform="translate(10 26)" d="M0 0H140V87.492H0z"/></clipPath></defs></svg>