<svg width="160" height="140" fill="none" xmlns="http://www.w3.org/2000/svg"><path fill="#fff" d="M0 0H160V140H0z"/><g clip-path="url(#clip0_601_6556)"><path d="M71.492 113.744c.455.581.683 1.239.683 1.997 0 .683-.177 1.29-.506 1.795-.329.506-.81.91-1.441 1.214-.632.303-1.366.43-2.25.43H62.49v-12.718h5.234c.86 0 1.593.151 2.225.43.632.278 1.087.657 1.416 1.163.328.505.48 1.062.48 1.694 0 .733-.202 1.365-.582 1.845a3.11 3.11 0 0 1-1.567 1.062c.733.127 1.34.506 1.795 1.088zm-6.422-2.023h2.326c.607 0 1.062-.127 1.39-.405.33-.278.481-.657.481-1.163 0-.505-.152-.91-.48-1.188-.33-.278-.784-.43-1.391-.43H65.07v3.186zm4.02 4.956c.354-.304.53-.708.53-1.239 0-.557-.176-.986-.555-1.29-.354-.303-.86-.455-1.467-.455h-2.503v3.413h2.579c.582 0 1.062-.151 1.416-.429zm6.979 2.022a4.513 4.513 0 0 1-1.82-1.82c-.456-.784-.658-1.695-.658-2.731 0-1.037.227-1.947.683-2.731a4.786 4.786 0 0 1 1.87-1.82 5.407 5.407 0 0 1 2.63-.658c.96 0 1.846.228 2.63.658a4.787 4.787 0 0 1 1.87 1.82c.456.784.683 1.694.683 2.731 0 1.036-.227 1.947-.707 2.731a4.7 4.7 0 0 1-1.897 1.82 5.505 5.505 0 0 1-2.655.657c-.96-.025-1.845-.227-2.63-.657zm3.944-1.922c.405-.227.733-.556.986-1.011.253-.455.354-.986.354-1.643 0-.961-.253-1.695-.758-2.2-.506-.506-1.113-.784-1.846-.784-.733 0-1.34.253-1.82.784-.481.505-.734 1.264-.734 2.2 0 .96.228 1.694.708 2.199.48.506 1.087.784 1.82.784.43.025.86-.101 1.29-.329zm7.687 1.922a4.512 4.512 0 0 1-1.82-1.82c-.456-.784-.658-1.695-.658-2.731 0-1.037.227-1.947.682-2.731a4.786 4.786 0 0 1 1.871-1.82 5.408 5.408 0 0 1 2.63-.658c.96 0 1.846.228 2.63.658a4.786 4.786 0 0 1 1.87 1.82c.456.784.683 1.694.683 2.731 0 1.036-.227 1.947-.708 2.731-.48.783-1.087 1.39-1.896 1.82a5.505 5.505 0 0 1-2.655.657c-.986-.025-1.87-.227-2.63-.657zm3.919-1.922a2.53 2.53 0 0 0 .986-1.011c.253-.455.354-.986.354-1.643 0-.961-.253-1.695-.759-2.2-.505-.506-1.112-.784-1.846-.784-.733 0-1.34.253-1.82.784-.48.505-.733 1.264-.733 2.2 0 .96.227 1.694.708 2.199.48.506 1.087.784 1.82.784.455.025.885-.101 1.29-.329zm11.807 2.402l-3.413-4.298v4.298h-2.554v-13.476h2.554v7.661l3.388-4.273h3.312l-4.45 5.057 4.475 5.031h-3.312zm12.617-11.934c1.011.531 1.795 1.265 2.351 2.226.556.96.835 2.073.835 3.362 0 1.29-.279 2.377-.835 3.338a5.494 5.494 0 0 1-2.351 2.2c-1.012.531-2.2.783-3.515.783h-4.45v-12.692h4.45c1.34 0 2.503.278 3.515.783zm-.506 8.673c.733-.733 1.087-1.745 1.087-3.085 0-1.314-.354-2.351-1.087-3.11-.733-.758-1.77-1.112-3.085-1.112h-1.82v8.394h1.795c1.34 0 2.377-.354 3.11-1.087zm7.459 2.781a4.517 4.517 0 0 1-1.82-1.82c-.43-.784-.657-1.695-.657-2.731 0-1.037.227-1.947.682-2.731a4.784 4.784 0 0 1 1.871-1.82 5.41 5.41 0 0 1 2.63-.658c.961 0 1.846.228 2.629.658a4.784 4.784 0 0 1 1.871 1.82c.456.784.683 1.694.683 2.731 0 1.036-.227 1.947-.708 2.731a4.7 4.7 0 0 1-1.896 1.82 5.506 5.506 0 0 1-2.655.657c-.986-.025-1.871-.227-2.63-.657zm3.92-1.922c.404-.227.733-.556.986-1.011.252-.455.354-.986.354-1.643 0-.961-.253-1.695-.759-2.2-.506-.506-1.112-.784-1.846-.784-.733 0-1.34.253-1.82.784-.481.505-.733 1.264-.733 2.2 0 .96.227 1.694.708 2.199.48.506 1.087.784 1.82.784.455.025.885-.101 1.29-.329zm7.686 1.922a4.513 4.513 0 0 1-1.821-1.82c-.455-.784-.657-1.695-.657-2.731 0-1.037.228-1.947.683-2.731a4.784 4.784 0 0 1 1.871-1.82 5.408 5.408 0 0 1 2.629-.658 5.41 5.41 0 0 1 2.63.658 4.784 4.784 0 0 1 1.871 1.82c.455.784.683 1.694.683 2.731 0 1.036-.228 1.947-.708 2.731a4.703 4.703 0 0 1-1.897 1.82 5.503 5.503 0 0 1-2.655.657c-.986-.025-1.845-.227-2.629-.657zm3.919-1.922c.405-.227.733-.556.986-1.011.253-.455.354-.986.354-1.643 0-.961-.253-1.695-.758-2.2-.506-.506-1.113-.784-1.846-.784-.733 0-1.34.253-1.821.784-.48.505-.733 1.264-.733 2.2 0 .96.228 1.694.708 2.199.48.506 1.087.784 1.82.784.456.025.885-.101 1.29-.329zm9.684-7.383c.531-.303 1.138-.455 1.821-.455v2.68h-.683c-.809 0-1.416.177-1.821.557-.404.379-.606 1.036-.606 1.972v5.031h-2.554v-10.088h2.554v1.568a3.631 3.631 0 0 1 1.289-1.265zM10.228 94.856l39.014 25.057c.328.227.783-.025.783-.43V51.164a.497.497 0 0 0-.227-.43L10.784 25.678c-.329-.228-.784.025-.784.43v68.318c0 .177.076.329.228.43z" fill="#414042"/><path d="M55.209 119.028a1.014 1.014 0 0 1-1.012-1.011V49.243l-39.57-26.397a1.012 1.012 0 0 1-.278-1.39 1.012 1.012 0 0 1 1.39-.279l40.026 26.675c.278.177.455.506.455.835v69.33c0 .556-.455 1.011-1.011 1.011z" fill="#414042"/><path d="M18.319 68.46a.486.486 0 0 1-.304-.102l-3.716-2.68v2.25a.507.507 0 0 1-.506.506.507.507 0 0 1-.506-.506v-3.236c0-.177.101-.354.278-.455.177-.076.38-.076.531.05l4.526 3.237c.228.151.278.48.127.707-.127.152-.279.228-.43.228z" fill="#fff"/></g><defs><clipPath id="clip0_601_6556"><path fill="#fff" transform="translate(10 21)" d="M0 0H140V98.989H0z"/></clipPath></defs></svg>