<svg width="160" height="140" fill="none" xmlns="http://www.w3.org/2000/svg"><path fill="#fff" d="M0 0H160V140H0z"/><g clip-path="url(#clip0_601_6565)"><path d="M90.746 28.955a24.412 24.412 0 0 1 4.513.076c2.667.278 5.284.999 7.825 2.124 3.566 1.555 3.679 2.908 3.224 5.74-1.062 6.51-1.883 13.16-2.794 19.696a34.365 34.365 0 0 0-.202 1.618c-.19 1.568-.367 2.908-.759 3.97-.922 2.49-2.566 3.439-6.573 1.96a23.564 23.564 0 0 0-6.157-1.391 24.52 24.52 0 0 0-3.856-.013c.569-.77 1.163-1.542 1.72-2.376.884-.013 1.782.012 2.654.088 2.301.19 4.526.708 6.7 1.517 2.2.797 2.997.57 3.325-.29.291-.797.443-1.998.607-3.414.076-.531.152-1.1.228-1.656l2.377-17.067c.075-.62.177-1.226.278-1.783.404-2.364.581-3.35-1.947-4.462-2.364-1.024-4.766-1.682-7.219-1.947a22.114 22.114 0 0 0-3.995-.076c-.114-.493-.05-1.48.05-2.314zm-21.163.026c-1.631-.14-3.25-.114-4.83.063-2.667.278-5.284.998-7.825 2.124-3.54 1.555-3.68 2.907-3.224 5.74 1.062 6.51 1.896 13.16 2.806 19.696h-.012c.088.594.152 1.112.227 1.618.19 1.568.354 2.908.746 3.97.936 2.49 2.58 3.438 6.574 1.96 2.036-.747 4.084-1.214 6.157-1.391a22.69 22.69 0 0 1 3.59-.026 12.56 12.56 0 0 0-1.504-1.681l-.038-.063-.063-.063c-.165-.19-.329-.392-.506-.582-.67.013-1.34.05-1.997.101-2.288.19-4.526.708-6.7 1.517-2.2.797-2.997.57-3.313-.29-.29-.797-.442-1.998-.62-3.414-.075-.531-.139-1.1-.227-1.656L56.46 39.537c-.089-.62-.19-1.226-.278-1.783-.417-2.364-.582-3.35 1.947-4.462 2.339-1.024 4.74-1.682 7.206-1.947a22.6 22.6 0 0 1 4.715-.013l.064-.025c-.013-.19-.089-.417-.114-.531l-.025-.114-.013-.114c-.114-.518-.253-1.036-.38-1.567zM52.3 37.969c-3.528 1.644-3.262 3.136-2.68 6.498.075.493.176 1.037.265 1.707v.013l2.566 15.65h-.012c.91 6.36 5.74 9.697 11.984 7.599 2.124-.72 4.628-1.227 7.143-1.39 1.631-.115 3.25-.077 4.792.113a20.965 20.965 0 0 0-.797-2.377 26.278 26.278 0 0 0-4.462-.063c-2.706.177-5.386.72-7.7 1.517-4.74 1.605-7.951-.544-8.647-5.398v-.026L52.2 46.175c-.089-.62-.19-1.226-.279-1.782-.328-1.91-.505-2.92.784-3.844l-.404-2.579zm14.652 6.372c-1.896.24-3.767.657-5.638 1.252l.34 2.465c1.872-.632 3.756-1.1 5.652-1.366-.316-.758-.518-1.567-.354-2.351zm3.944 7.56c-.227.013-.455.025-.682.025-2.642.152-5.247.62-7.813 1.404l.278 2.086h.013l.05.366a30.4 30.4 0 0 1 8.015-1.555h.14c.164-.19.34-.354.518-.53.05-.064.151-.153.202-.228-.013-.177-.14-.494-.19-.62a7.145 7.145 0 0 0-.53-.948zm-3.893-14.83c-1.53.14-3.047.355-4.539.696.05.316.101.657.152 1.037h.012l.177 1.365c1.732-.43 3.49-.708 5.247-.822-.417-.733-.797-1.466-1.05-2.275zm40.708.898c3.514 1.644 3.261 3.136 2.68 6.498a59.708 59.708 0 0 0-.278 1.707v.013l-2.554 15.65c-.885 6.36-5.74 9.697-11.972 7.599a28.842 28.842 0 0 0-6.79-1.378c-.252-.835-.67-1.631-1.162-2.39.417.013.847.026 1.264.063 2.705.178 5.385.721 7.699 1.518 4.741 1.605 7.965-.544 8.647-5.399v-.025l2.567-15.638h-.013c.089-.62.19-1.227.291-1.783.328-1.909.505-2.92-.784-3.843l.405-2.592zm-15.323 6.283c2.124.24 4.223.683 6.283 1.34l-.341 2.466a31.28 31.28 0 0 0-6.157-1.441c.291-.822.38-1.619.215-2.365zm-4.02 7.636c.48.013.948.026 1.428.05 2.643.153 5.247.62 7.813 1.404l-.29 2.086-.064.367a30.313 30.313 0 0 0-7.99-1.555c-.354-.013-.695-.026-1.049-.026l-.114-.151c-.177-.228-.354-.455-.455-.72-.126-.254.278-.86.72-1.455zm3.906-14.854c1.77.1 3.527.341 5.285.746-.063.316-.101.657-.165 1.036l-.19 1.366a29.737 29.737 0 0 0-5.562-.847c-.177 0-.354-.013-.53-.013.164-.278.315-.506.404-.632l.076-.089.05-.1c.203-.469.443-.949.632-1.467zm-61.491 71.681h-7.56c.113-.114.227-.24.328-.366.076-.139.14-.253.165-.354.025-.102.05-.241.05-.367 0-.531-.202-1.138-.594-1.858-.392-.696-.935-1.404-1.643-2.137a4.355 4.355 0 0 0-1.897-1.176c-.607-.189-1.378-.278-2.338-.278h-1.227v2.832c0 .544.013.936.05 1.163.077.62.24 1.125.494 1.505.152.24.316.429.518.606.152.152.354.291.607.443h-7.712c.304-.164.531-.341.708-.531.19-.177.354-.417.518-.708.102-.202.19-.493.279-.872a4.53 4.53 0 0 0 .139-1.05v-8.925-.367c0-.114.012-.24.012-.366 0-.683-.05-1.29-.139-1.808-.139-.759-.354-1.34-.657-1.72-.152-.202-.29-.366-.43-.53a4.707 4.707 0 0 0-.48-.506H22.73c1.732 0 3.198.505 4.4 1.517 1.188 1.011 1.794 2.3 1.794 3.856 0 1.251-.455 2.313-1.352 3.186-.86.834-1.96 1.365-3.325 1.555.316.177.594.354.86.568.252.228.518.43.783.658.177.152.417.43.683.809.164.24.354.531.594.936l1.037 1.63c.151.253.316.519.493.772.164.252.341.505.53.733.481.442.987.834 1.556 1.15zM24.26 96.882c0-.847-.341-1.466-.973-1.884-.544-.354-1.264-.518-2.124-.518h-5.17v4.627h5.79c.682 0 1.251-.19 1.719-.581.506-.418.758-.961.758-1.644zm28.357 6.587l-1.252 3.097c-.088.228-.177.443-.265.67a1.97 1.97 0 0 0-.114.632c0 .051.013.114.025.24.013.102.063.203.114.316.038.089.114.19.202.291H32.92c.43-.253.797-.594 1.125-1.011.089-.114.177-.329.266-.632.088-.316.139-.594.139-.86V94.341c0-.442-.063-.834-.164-1.138-.114-.316-.316-.657-.582-1.024a3.537 3.537 0 0 0-.923-.872h18.18a1.203 1.203 0 0 0-.177.265c-.076.114-.101.228-.114.278-.013.076-.013.178-.013.291v.24c.013.064.064.203.14.43l.935 3.072c-.38-.202-.771-.379-1.125-.53a11.855 11.855 0 0 0-1.125-.392 12.046 12.046 0 0 0-1.77-.418c-.506-.088-1.113-.114-1.808-.114h-7.282v3.882h7.712c.366 0 .745-.05 1.112-.114a4.066 4.066 0 0 0 1.05-.329l-1.227 2.213c-.164.265-.328.48-.53.657-.203.19-.405.316-.582.367-.19.075-.405.139-.658.164-.253.051-.43.063-.543.063h-6.397v4.223h7.004c1.1 0 2.035-.076 2.806-.19.771-.114 1.53-.354 2.288-.683.38-.177.72-.354 1.012-.531.278-.189.594-.404.948-.682zm22.124-3.717c0 2.465-.658 4.399-1.972 5.815-1.126 1.214-2.744 2.061-4.868 2.567-1.63.379-3.653.581-6.068.581h-6.801c.265-.291.543-.594.809-.91.227-.354.366-.708.455-1.049.076-.342.114-.772.114-1.252v-10.48c0-.405-.064-.822-.177-1.252a4.836 4.836 0 0 0-.531-1.2 6.756 6.756 0 0 0-.519-.709 3.986 3.986 0 0 0-.493-.569h10.847c1.277 0 2.554.253 3.83.746 1.568.607 2.807 1.48 3.718 2.617 1.112 1.39 1.656 3.097 1.656 5.095zm-4.64.253c0-1.732-.455-3.098-1.378-4.084-.923-.96-2.15-1.454-3.704-1.454h-4.374v11.075h3.527c1.82 0 3.236-.405 4.222-1.201 1.125-.91 1.707-2.364 1.707-4.336zm30.784-.329c0 2.756-.936 4.981-2.807 6.688-1.921 1.744-4.475 2.629-7.648 2.629-3.287 0-5.828-.834-7.61-2.503-1.657-1.555-2.504-3.704-2.504-6.422 0-2.655 1.024-4.817 3.06-6.486 1.984-1.63 4.525-2.452 7.572-2.452 3.199 0 5.664.784 7.421 2.364 1.694 1.517 2.516 3.578 2.516 6.182zm-4.69.228c0-1.656-.443-3.01-1.353-4.059-.948-1.112-2.288-1.656-3.995-1.656-1.77 0-3.186.544-4.286 1.656-1.1 1.113-1.643 2.478-1.643 4.122 0 1.707.43 3.097 1.277 4.172.96 1.213 2.364 1.82 4.184 1.82 1.871 0 3.325-.607 4.362-1.808.973-1.125 1.454-2.528 1.454-4.247zm29.469 8.811h-6.486c.316-.493.455-.999.455-1.479 0-.329-.076-.67-.227-1.037-.139-.29-.253-.581-.392-.872h-9.95a3.434 3.434 0 0 0-.354.948 3.692 3.692 0 0 0-.113.923c0 .266.025.493.088.695.076.19.24.481.506.835h-6.422c.177-.152.328-.316.455-.493.151-.177.253-.367.354-.582.025-.05.113-.253.265-.607l6.372-14.235c.101-.227.177-.392.227-.493.089-.19.139-.341.139-.455 0-.025 0-.076-.025-.152-.012-.075-.025-.139-.076-.19-.025-.062-.076-.138-.113-.201h7.142a.992.992 0 0 0-.24.43c-.025.113-.05.202-.05.24 0 .139.025.252.088.392.089.176.152.316.19.417l5.423 11.289c.481 1.024.822 1.72 1.037 2.111.202.392.455.797.746 1.265.177.252.329.48.455.657.291.316.455.531.506.594zm-8.294-6.801l-3.565-7.737-3.299 7.737h6.864zm32.63 6.801h-8.268c.164-.139.291-.278.392-.442a.868.868 0 0 0 .114-.594c0-.228-.064-.456-.177-.683-.114-.228-.279-.455-.506-.733l-4.627-5.563-3.426 2.718v2.503c0 .658.189 1.265.581 1.821.101.177.253.341.443.518.202.177.404.329.594.443h-7.484c.152-.064.329-.19.531-.367.265-.228.48-.455.607-.708.151-.24.24-.48.29-.708.051-.24.064-.518.064-.872V94.632c0-.455-.051-.847-.114-1.176a3.967 3.967 0 0 0-.481-1.05 3.736 3.736 0 0 0-.998-1.1h7.193c-.227.203-.367.342-.48.43a2.525 2.525 0 0 0-.405.506 2.15 2.15 0 0 0-.291.708c-.063.24-.075.506-.075.822v5.335l6.902-5.664c.24-.19.455-.417.632-.632.177-.24.266-.43.266-.581 0-.228-.051-.405-.152-.544a1.3 1.3 0 0 0-.442-.367h8.672c-.48.266-.961.57-1.441.885-.329.228-.657.456-.999.721-.341.266-.682.531-1.011.784l-5.411 4.336 6.7 8.167c.342.417.531.657.582.708.19.228.417.443.683.683.505.43 1.011.796 1.542 1.112z" fill="#434343"/><path fill-rule="evenodd" clip-rule="evenodd" d="M79.09 14.733c-.405.923-.456 2.49-2.908 3.274-1.505.342-2.162.936-1.871 2.807.202 1.466-.48 2.377-2.06 2.743-2.479.48-.608 5.07-.406 6.739.67 2.288-.391 2.414-2.161 2.97-.81.266-1.15 1.05-1.012 2.377.165 1.48 1.088 2.807 2.023 4.4.847 1.276.835 2.25-.05 2.945-1.644 1.302-2.744 1.29-.633 4.564 1.138 1.896 2.428 2.756 3.237 4.652.67 1.555.202 2.112-.38 2.68-.164.178-.353.342-.518.532-1.39 1.643.329 3.16 1.378 4.386a16.463 16.463 0 0 1 2.592 3.237c1.163 1.858 1.808 3.881 2.263 6.043.05.278.063.518.076.632.1 1.315-.076 1.934-.24 2.705-.266 1.265-.24 2.162-.102 3.098.342-.165.696-.329 1.037-.493.822-.392 1.644-.759 2.427-1.163a8.055 8.055 0 0 0-.19-1.454c-.164-.772-.34-1.378-.252-2.706.013-.177.063-.607.151-1.049 1-4.602 3.477-6.6 5.816-10.38 1.466-2.376-.329-2.68-.96-4.348-.848-2.213 3.008-4.88 4.171-7.03 1.011-1.896.683-3.147-.96-3.767-1.442-.682-1.164-2.49.846-5.423 1.34-2.63 1.303-4.26-.1-4.88-1.1-.316-1.34-2.15-.709-5.55.582-2.3-.088-3.502-1.997-3.578-1.05-.177-1.72-1.1-1.985-2.768-.114-1.543-.632-2.541-1.53-2.946-1.378-.657-1.833-.392-2.326-1.39-.202-.43-.341-1.29-.683-1.897-.543-.91-1.555-.96-1.984.038zm.922 72.693c-1.972-1.176-6.852-3.818-6.498-6.233.228-1.492 2.213-2.49 4.994-3.818.063.316.164.266.228.607.05.341.202.392.328.417.266.063.771.101 1.088.101a4.335 4.335 0 0 1-.91.101c-.013.974-.43 2.58-.823 3.414.392.1 1 .227 1.96.316-.569.076-1.782 0-2.086-.063 0 .012 1.403 2.996 1.72 5.158zm1.606-11.492c2.579-1.264 5.284-2.933 6.043-4.652 1.34-2.668-1.745-6.233-3.237-7.687-.113.19-.455.683-.568.872 1.909 1.96 3.603 4.375 2.68 6.423-.822 1.858-4.046 3.35-7.194 4.816-3.426 1.606-6.763 3.148-7.092 5.297-.164 1.1.442 2.175 1.82 3.275 1.277 1.024 3.25 2.073 5.93 3.148a45.37 45.37 0 0 0-.278-3.78.472.472 0 0 1-.152-.33c0-.24.19-.429.43-.429s.417.19.417.43c0 .114-.063.24-.152.329a37.4 37.4 0 0 0-.265 3.78c.19-1.568 1.707-5.146 1.707-5.146-.418-.746-.936-2.604-.949-3.691 0-.291.43 0 .519-.594.139-.949.24-1.328.341-2.061zm-1.037-15.221c.063-.329.165-.658.392-1.024l1.378-2.276c1.252-2.06 2.642-4.475.847-2.162l-1.466 1.985c-.607.784-1.113 1.568-1.176.695v-5.259a3.761 3.761 0 0 1 .607-1.744c.354-.531.594-.91.86-1.303 1.112-1.706 6.017-8.799 1.213-2.756l-2.048 2.529c-.367.48-.569.493-.632.227-.013-2.313-.013-4.677-.013-7.003.076-.266.228-.544.443-.923a19.827 19.827 0 0 1 2.06-3.16c.67-.873 2.25-3.503 2.074-3.364-.405.291-3.25 3.667-3.629 4.134-.492.607-.796.873-.96.633-.013-2.074-.05-4.122-.064-6.107.076-.227.19-.455.392-.77.658-1.088.86-1.53 1.517-2.63 1.43-2.34 2.225-3.97.342-1.53-.594.771-1.087 1.517-1.682 2.275-.316.43-.493.57-.594.494-.05-3.287-.151-5.475-.253-8.256-.025-.632-.088-1.264-.151-1.441-.013-.05-.026-.063-.026-.063-.012 0-.025.012-.025.063-.063.177-.114.796-.152 1.441a341.687 341.687 0 0 0-.265 8.256c-.089.075-.266-.064-.594-.494-.594-.758-1.062-1.491-1.656-2.275-1.884-2.453-1.1-.822.328 1.53.67 1.1.86 1.542 1.53 2.63.19.315.316.543.38.77-.026 1.985-.039 4.033-.064 6.106-.164.24-.48-.025-.973-.632-.392-.48-3.237-3.843-3.616-4.134-.177-.139 1.39 2.49 2.073 3.363.759.961 1.353 1.859 2.048 3.16.24.367.367.658.455.924-.012 2.326-.012 4.69-.012 7.003-.089.266-.266.253-.632-.227l-2.048-2.554c-4.817-6.043.088 1.05 1.213 2.756.266.405.493.771.847 1.302.38.594.544 1.138.62 1.745v5.26c-.076.871-.582.088-1.189-.696l-1.466-1.972c-1.783-2.314-.405.1.847 2.161l1.378 2.276c.227.367.341.695.392 1.024.088.493.455 9.064.594 9.052.152-.013.468-8.47.556-9.04z" fill="#E57C41"/><path d="M40.632 125.946v-1.428h-4.134v-2.427h3.792v-1.442h-3.792v-2.098h4.045v-1.429h-5.626v8.824h5.715zm7.143 0c1.453 0 2.591-.404 3.413-1.201.796-.796 1.214-1.858 1.214-3.185 0-1.34-.418-2.402-1.227-3.199-.809-.834-1.96-1.226-3.413-1.226h-3.16v8.824h3.173v-.013zm-1.58-7.395h1.453c2.225 0 3.173 1.138 3.173 3.009 0 1.807-.96 2.971-3.16 2.971h-1.467v-5.98zm9.987 4.02c0 1.125.328 1.997 1.011 2.604.67.607 1.53.923 2.58.923 1.048 0 1.895-.316 2.566-.923.682-.607 1.01-1.479 1.01-2.604v-5.449h-1.592v5.285c0 1.529-.759 2.25-1.985 2.25-1.264 0-1.997-.721-1.997-2.25v-5.285h-1.593v5.449zm15.65-5.6c-1.301 0-2.426.429-3.337 1.302-.91.872-1.365 1.959-1.365 3.261 0 1.303.455 2.402 1.365 3.275.91.859 2.036 1.289 3.338 1.289a4.54 4.54 0 0 0 3.502-1.618l-1.062-.923c-.607.721-1.441 1.1-2.428 1.1-.885 0-1.643-.291-2.237-.885-.594-.594-.885-1.34-.885-2.238 0-.91.29-1.643.885-2.237.594-.594 1.352-.911 2.237-.911.961 0 1.783.354 2.415 1.088l1.062-.936c-.923-1.024-2.099-1.567-3.49-1.567zm8.117 8.975l.784-1.706h3.818l.784 1.706h1.681l-4.362-9.254-4.386 9.254h1.681zm2.68-5.941l1.302 2.882h-2.604l1.302-2.882zm10.14 5.941v-7.395h2.401v-1.429H88.8v1.429h2.389v7.395h1.58zm7.635 0v-8.824h-1.593v8.824h1.593zm8.572.177c1.302 0 2.414-.442 3.325-1.302.91-.872 1.352-1.972 1.352-3.261 0-1.29-.442-2.39-1.365-3.262-.91-.872-1.998-1.315-3.312-1.315-1.303 0-2.402.443-3.313 1.315-.91.872-1.352 1.972-1.352 3.262 0 1.289.442 2.389 1.352 3.261.911.86 2.01 1.302 3.313 1.302zm-3.098-4.563c0-.885.278-1.631.873-2.238a3.042 3.042 0 0 1 2.225-.923c.872 0 1.618.316 2.212.923.594.607.885 1.353.885 2.238s-.291 1.63-.885 2.237a3.034 3.034 0 0 1-2.212.911 3.082 3.082 0 0 1-2.225-.911c-.595-.594-.873-1.34-.873-2.237zm13.199 4.386v-5.549l6.017 5.891v-9.166h-1.592v5.575l-6.018-5.903v9.152h1.593z" fill="#E57C41"/></g><defs><clipPath id="clip0_601_6565"><path fill="#fff" transform="translate(10 14)" d="M0 0H140V112.288H0z"/></clipPath></defs></svg>