<svg width="160" height="140" fill="none" xmlns="http://www.w3.org/2000/svg"><path fill="#fff" d="M0 0H160V140H0z"/><g clip-path="url(#clip0_601_6562)"><path fill-rule="evenodd" clip-rule="evenodd" d="M45.72 20.203c17.85 9.08 36.779 27.47 49.37 47.607v3.822C78.628 60.069 62.166 52.376 45.72 49.42V20.203z" fill="#F2966C"/><path fill-rule="evenodd" clip-rule="evenodd" d="M29.83 27.765C53.427 34.118 78.464 49.6 95.106 67.81v3.822c-21.77-9.032-43.524-14.21-65.278-14.617v-29.25z" fill="#E57C41"/><path fill-rule="evenodd" clip-rule="evenodd" d="M15.457 42.398C44.25 43.46 74.79 53.34 95.091 67.81v40.911a110.061 110.061 0 0 0-36.763-11.138c-18.65-2.221-33.84.833-42.87 3.381V42.398z" fill="#414042"/><path fill-rule="evenodd" clip-rule="evenodd" d="M95.09 79.896l1.732 6.859c.31 1.405 1.502 2.58 2.89 2.907l6.876 1.715-6.876 1.715c-1.388.326-2.58 1.502-2.89 2.89l-1.731 6.876-1.715-6.876c-.31-1.388-1.503-2.564-2.891-2.89l-6.876-1.715 6.876-1.715c1.388-.327 2.58-1.502 2.89-2.907l1.716-6.86z" fill="#414042"/><path fill-rule="evenodd" clip-rule="evenodd" d="M116.419 50.924l1.046 4.18c.196.85.914 1.569 1.747 1.765l4.181 1.028-4.181 1.046c-.849.196-1.568.914-1.747 1.764l-1.046 4.164-1.045-4.164a2.417 2.417 0 0 0-1.764-1.764l-4.164-1.046 4.164-1.028a2.417 2.417 0 0 0 1.764-1.764l1.045-4.181z" fill="#F2966C"/><path fill-rule="evenodd" clip-rule="evenodd" d="M104.922 62.013L106 68.74c.196.882.947 1.617 1.813 1.813l4.311 1.078-4.311 1.078c-.882.212-1.617.947-1.813 1.813l-1.078 6.728-1.078-6.729c-.196-.881-.947-1.616-1.813-1.812l-4.311-1.078 4.311-1.078c.882-.196 1.617-.947 1.813-1.813l1.078-6.728zm5.128 16.675l.768 4.785c.147.62.669 1.16 1.29 1.29l3.07.767-3.07.768a1.782 1.782 0 0 0-1.29 1.29l-.768 4.785-.768-4.785c-.147-.62-.669-1.16-1.29-1.29l-3.07-.767 3.07-.768a1.782 1.782 0 0 0 1.29-1.29l.768-4.785zm2.074-57.766l.768 4.785c.147.62.669 1.16 1.29 1.29l3.07.768-3.07.768a1.782 1.782 0 0 0-1.29 1.29l-.768 4.785-.767-4.785c-.147-.62-.67-1.16-1.291-1.29l-3.07-.768 3.07-.768a1.783 1.783 0 0 0 1.291-1.29l.767-4.785zm9.293 14.634l.768 4.785c.147.62.669 1.16 1.29 1.29l3.07.768-3.07.767a1.782 1.782 0 0 0-1.29 1.29l-.768 4.786-.767-4.786c-.147-.62-.67-1.16-1.291-1.29l-3.07-.767 3.07-.768a1.783 1.783 0 0 0 1.291-1.29l.767-4.785z" fill="#E57C41"/><path fill-rule="evenodd" clip-rule="evenodd" d="M95.09 97.387l.768 4.785c.147.621.67 1.16 1.29 1.29l3.071.768-3.07.768a1.78 1.78 0 0 0-1.29 1.29l-.768 4.785-.768-4.785c-.147-.621-.67-1.16-1.29-1.29l-3.07-.768 3.07-.768a1.782 1.782 0 0 0 1.29-1.29l.768-4.785z" fill="#fff"/><path fill-rule="evenodd" clip-rule="evenodd" d="M118.265 68.709l.767 4.785c.147.62.67 1.16 1.291 1.29l3.07.768-3.07.767c-.621.147-1.16.67-1.291 1.29l-.767 4.786-.768-4.785c-.147-.62-.669-1.16-1.29-1.29l-3.07-.768 3.07-.768c.621-.147 1.16-.67 1.29-1.29l.768-4.785zM96.576 28.304l.997 5.912c.18.767.865 1.42 1.682 1.6l3.985.947-3.985.948c-.817.18-1.503.833-1.682 1.6l-.997 5.912-.996-5.912c-.18-.767-.865-1.42-1.682-1.6l-3.985-.947 3.985-.948c.817-.18 1.502-.833 1.682-1.6l.996-5.912zm7.203 65.458l.768 4.785c.147.62.669 1.16 1.29 1.29l3.07.784-3.07.768c-.621.147-1.16.669-1.29 1.29l-.768 4.785-.768-4.785c-.147-.621-.669-1.16-1.29-1.29l-3.07-.768 3.07-.768c.621-.147 1.16-.67 1.29-1.29l.768-4.801z" fill="#414042"/><path fill-rule="evenodd" clip-rule="evenodd" d="M89.979 81.268l.767 4.785c.147.62.67 1.16 1.29 1.29l3.07.767-3.07.768c-.62.147-1.159.67-1.29 1.29l-.767 4.785-.768-4.785c-.147-.62-.67-1.16-1.29-1.29l-3.07-.767 3.07-.768c.62-.147 1.16-.67 1.29-1.29l.768-4.785z" fill="#fff"/><path fill-rule="evenodd" clip-rule="evenodd" d="M102.064 45.256l.441 3.12c.082.407.392.75.751.849l1.764.506-1.764.506c-.359.098-.669.441-.751.85l-.441 3.119-.441-3.12c-.082-.408-.392-.751-.751-.849l-1.764-.506 1.764-.507c.359-.097.669-.44.751-.849l.441-3.12zM100.676 9l.441 3.12c.081.408.392.75.751.849l1.764.506-1.764.506c-.359.098-.67.441-.751.85l-.441 3.119-.441-3.12c-.082-.408-.392-.75-.751-.849l-1.764-.506 1.764-.506c.359-.098.669-.441.751-.85L100.676 9zm-5.57 47.492l1.111 6.664c.213.865.98 1.6 1.895 1.796l4.475 1.061-4.475 1.062c-.915.196-1.682.931-1.895 1.797l-1.11 6.663-1.11-6.663c-.213-.866-.98-1.6-1.895-1.797l-4.475-1.062 4.475-1.061c.914-.196 1.682-.93 1.894-1.796l1.11-6.664z" fill="#414042"/><path d="M19.556 123.877h-.277c-.817-.032-1.388-.065-1.682-.081-.8-.049-1.438-.066-1.895-.066a.651.651 0 0 1-.359-.13l-.016-.017a.495.495 0 0 1-.196-.408c0-.163.065-.31.196-.392a.507.507 0 0 1 .359-.147c.294 0 .702.016 1.192.033a34.593 34.593 0 0 1-.081-2.368c0-.605.016-1.487.049-2.613v-.131c.032-1.127.049-1.976.049-2.548 0-.882-.017-1.633-.05-2.237a9.638 9.638 0 0 0-1.208.098h-.098a.603.603 0 0 1-.278-.082l-.016-.016-.016-.017a.738.738 0 0 1-.213-.277l-.016-.033v-.114c0-.115.033-.213.098-.294.082-.131.212-.196.36-.229h.048l.85-.131h1.273c1.11.017 2.09.098 2.924.245 1.143.196 2.074.49 2.744.866.93.523 1.437 1.209 1.518 2.025.017.114.017.278.017.49 0 .686-.164 1.225-.474 1.633a2.324 2.324 0 0 1-.653.556h-.017l-.604.294c.31.163.588.342.817.555.588.539.93 1.257.98 2.123l.016.294c0 .31-.049.653-.147.98-.147.522-.408.914-.751 1.176h-.033c-.588.359-1.34.637-2.237.8-.605.114-1.34.163-2.172.163zm-.277-1.094h.261c.768 0 1.454-.049 2.025-.131.735-.114 1.34-.326 1.797-.62.082-.049.212-.196.326-.556.098-.277.115-.587.098-.898-.065-1.11-.767-1.796-2.139-2.139a11.04 11.04 0 0 0-2.041-.213h-.621l-1.078.049c0 .131 0 .229-.016.311l-.017 1.747c0 .882.033 1.699.082 2.417l1.323.033zm-1.372-10.011c.033.62.049 1.388.049 2.253 0 .507-.016 1.225-.049 2.14l.327-.016c.147-.017.375-.017.702-.017h1.813l.522-.049c.572-.049 1.03-.147 1.323-.277.555-.245.768-.425.85-.556.18-.228.26-.539.26-.963 0-.164 0-.278-.016-.36-.049-.473-.342-.849-.898-1.159-.604-.343-1.437-.621-2.482-.784a19.525 19.525 0 0 0-2.401-.212zm13.326 11.057c-1.535 0-2.776-.523-3.707-1.536-.865-.963-1.355-2.204-1.437-3.674-.065-1.437.245-2.793.947-4.001.784-1.356 1.878-2.271 3.267-2.695a.559.559 0 0 1 .163-.033h.163l2.858-.147 1.699 1.846c.996 1.061 1.519 2.433 1.551 4.05.017 1.584-.408 2.972-1.29 4.132-.98 1.306-2.319 2.009-3.952 2.074-.098-.016-.18-.016-.262-.016zm-3.266-8.673c-.604 1.029-.865 2.156-.8 3.397.065 1.242.457 2.254 1.16 3.005.734.784 1.665 1.176 2.874 1.176h.245c1.306-.049 2.319-.571 3.12-1.633.734-.963 1.093-2.123 1.077-3.446-.033-1.355-.457-2.466-1.241-3.331-.85-.899-2.009-1.356-3.446-1.356h-.376l-1.633.539-.98 1.649zm15.14 8.673c-1.536 0-2.777-.523-3.708-1.536-.865-.963-1.355-2.204-1.437-3.674-.065-1.437.245-2.793.947-4.001.784-1.356 1.879-2.271 3.267-2.695a.558.558 0 0 1 .163-.033h.163l2.858-.147 1.699 1.846c.996 1.061 1.519 2.433 1.551 4.05.017 1.584-.408 2.972-1.29 4.132-.98 1.306-2.319 2.009-3.952 2.074-.098-.016-.18-.016-.261-.016zm-3.267-8.673c-.604 1.029-.865 2.156-.8 3.397.065 1.242.457 2.254 1.16 3.005.734.784 1.665 1.176 2.874 1.176h.245c1.306-.049 2.319-.571 3.12-1.633.734-.963 1.093-2.123 1.077-3.446-.032-1.355-.457-2.466-1.241-3.331-.85-.899-2.009-1.356-3.446-1.356h-.376l-1.633.539-.98 1.649zm25.412 15.923c-1.502 0-2.988-.588-4.393-1.731-1.339-1.094-2.727-2.825-4.083-5.144-.31-.556-.718-1.274-1.176-2.14-.702-1.323-.93-1.747-.996-1.894-.506-.964-.898-1.65-1.176-2.025-.277.261-.604.588-1.029.963-.016 1.258-.032 2.123-.032 2.597v1.029c.326 0 .62-.017.898-.033h.016c.147 0 .278.049.392.147.066.065.164.18.18.359v.033a.556.556 0 0 1-.147.392.49.49 0 0 1-.376.18c-.44.016-.947.032-1.519.032h-.343c-.424.017-.849.017-1.273.017h-.05a.521.521 0 0 1-.31-.115h-.032a.608.608 0 0 1-.213-.359v-.114c0-.131.05-.229.147-.327a.667.667 0 0 1 .343-.163h.066c.375 0 .75 0 1.11-.017v-.849c0-.931.033-2.433.082-4.491.049-1.405.081-2.744.081-3.969v-.473c-.26 0-.636.016-1.143.016-.163 0-.31-.065-.392-.196a.507.507 0 0 1-.147-.359c0-.147.05-.278.164-.376a.531.531 0 0 1 .375-.163c1.192 0 2.172-.033 2.907-.082h.017c.163 0 .294.049.392.164a.683.683 0 0 1 .18.359v.032a.654.654 0 0 1-.131.376l-.017.016a.465.465 0 0 1-.392.196l-.735.033v.523c0 1.241-.032 2.58-.081 4.001v.147a136.24 136.24 0 0 0 1.796-1.764l.196-.212.13-.131c.034-.032.083-.081.132-.114a89.038 89.038 0 0 1 2.547-2.466c-.212 0-.424.016-.62.016h-.017a.645.645 0 0 1-.359-.131.54.54 0 0 1-.212-.343V112.379c0-.097.032-.195.114-.31l.016-.016.017-.016a.614.614 0 0 1 .375-.164c.164-.016.49-.016.98-.016h.768c.163 0 .277 0 .375.016.18 0 .376 0 .572.017h.196c.114 0 .245 0 .343-.017h.066c.097 0 .195.033.31.115h.032a.576.576 0 0 1 .196.359v.032a.65.65 0 0 1-.13.36v.016a.725.725 0 0 1-.343.212h-.033l-.49.017h-.016c-.213 0-.376 0-.523-.017l-1.143.98-2.221 2.238h-.017l-.147.147c-.13.13-.163.179-.18.196l-.016.016-.816.8c.147.196.327.441.506.752.114.212.392.718.833 1.518l.996 1.911c.507.964.899 1.666 1.144 2.091 1.306 2.221 2.596 3.87 3.854 4.867 1.208.979 2.433 1.486 3.674 1.486.441 0 .866-.049 1.258-.164h.016l.115-.016h.016c.114 0 .212.033.294.098.13.098.212.212.228.343v.098a.457.457 0 0 1-.097.294c-.099.131-.213.212-.327.229a5.585 5.585 0 0 1-1.552.228zm6.092-6.711c-.735 0-1.388-.294-1.943-.882a5.033 5.033 0 0 1-.605-.833c-.31-.572-.473-1.127-.473-1.666 0-.67.245-1.307.718-1.895.31-.392.752-.8 1.323-1.208.343-.245.85-.588 1.535-.996-.098-.311-.163-.474-.18-.539-.195-.703-.293-1.323-.293-1.862 0-.849.228-1.552.702-2.058.441-.539.996-.833 1.617-.866h.114c.54 0 1.03.18 1.437.539.458.376.752.85.833 1.421.033.196.033.343.033.425 0 .457-.147.914-.425 1.372a4.45 4.45 0 0 1-1.061 1.094c-.327.245-.8.572-1.405.931.409.898.931 1.764 1.568 2.58.163.196.294.376.408.507.425-.523.817-1.095 1.16-1.666.408-.686.686-1.241.865-1.699h-.767c-.163 0-.31-.065-.392-.196a.505.505 0 0 1-.147-.359c0-.147.049-.278.163-.376a.623.623 0 0 1 .245-.147l.066-.081h1.012l.686-.017c.474-.016 1.013-.016 1.584-.016.115 0 .245.049.36.131l.016.016.016.016a.532.532 0 0 1 .163.376.551.551 0 0 1-.18.392.552.552 0 0 1-.391.18c-.457 0-.882 0-1.258.016-.147.523-.44 1.159-.881 1.943a16.52 16.52 0 0 1-1.536 2.238c.572.522 1.127.882 1.65 1.061.196.066.408.098.604.098.555 0 .98-.343 1.307-1.029a.573.573 0 0 1 .294-.293l.016-.017.13-.032h.017a.6.6 0 0 1 .277.081h.033a.745.745 0 0 1 .245.31v.017l.033.179-.05.213-.016.016c-.343.702-.8 1.209-1.355 1.47a2.305 2.305 0 0 1-.98.212c-.294 0-.62-.049-.93-.163-.638-.212-1.307-.637-2.026-1.29l-.163.163c-.948.98-1.878 1.633-2.777 1.944-.31.196-.653.245-.996.245zm.964-6.435c-.507.31-.948.588-1.307.849-.474.343-.85.686-1.11 1.013-.31.375-.458.767-.458 1.208 0 .343.115.719.327 1.127.147.261.294.457.44.604.36.36.736.539 1.16.539.196 0 .425-.049.67-.13.719-.245 1.503-.817 2.335-1.683l.017-.016h.016c.033-.033.082-.065.147-.147a6.39 6.39 0 0 1-.555-.669 11.852 11.852 0 0 1-1.682-2.695zm1.486-5.259c-.31.016-.588.163-.866.49-.277.327-.424.768-.424 1.339 0 .441.081.964.245 1.552l.098.294c.506-.311.882-.556 1.143-.768.392-.294.67-.555.816-.817l.017-.016c.18-.261.261-.522.261-.784 0-.016 0-.081-.033-.245-.032-.294-.18-.539-.457-.784a1.234 1.234 0 0 0-.767-.277c-.017.016-.033.016-.033.016zm23.011 11.252a.485.485 0 0 1-.392-.163v-.017a.802.802 0 0 1-.163-.31l-.016-.032v-.082c0-.098.032-.196.114-.31l.016-.017.017-.016a.565.565 0 0 1 .326-.163l.098-.033.752-.049h.718c-.016-.735-.032-1.813-.032-3.299 0-1.895.016-3.707.049-5.39l-.964 2.124-.67 1.486-.098.228-.898 2.009a68.39 68.39 0 0 1-.784 1.731c-.228.507-.44.98-.637 1.389a.498.498 0 0 1-.408.31l-.147.016-.196-.049h-.016c-.164-.065-.278-.179-.31-.343a18.826 18.826 0 0 0-.768-1.878l-.882-1.845-.033-.033-.016-.033a79.92 79.92 0 0 1-1.209-2.596c-.18-.425-.359-.915-.555-1.454l-.016-.033v-.016a14.338 14.338 0 0 0-.425-1.159v.032l.016 1.209c.017.245.017.751.017 1.47l.016 1.453a306.9 306.9 0 0 1 .05 4.704l.359.016c.277 0 .473 0 .587.016.164 0 .294.066.392.196a.62.62 0 0 1 .131.376.487.487 0 0 1-.196.392l-.016.016a.645.645 0 0 1-.36.131h-.032c-.115-.017-.376-.017-.768-.017l-.8-.016h-.964c-.375 0-.604 0-.735-.016a.498.498 0 0 1-.359-.163.57.57 0 0 1-.163-.392c0-.147.049-.278.163-.376a.531.531 0 0 1 .376-.163h.032c.066 0 .229.016.686.016h.556a304 304 0 0 0-.05-4.671l-.016-1.453c0-.719 0-1.209-.016-1.454l-.016-1.258.016-.93c-.474.016-.833.016-1.062.016H86.794a.683.683 0 0 1-.343-.163.523.523 0 0 1-.13-.392c0-.164.065-.294.195-.376a.484.484 0 0 1 .327-.131H87.138c.228 0 .587 0 1.044-.016l.947-.033c.245 0 .425.131.507.343.196.327.392.735.588 1.209.098.261.261.686.473 1.274l.017.049v.032l.522 1.372c.343.768.735 1.617 1.209 2.532l.033.049v.016c.408.849.718 1.486.898 1.911.147.31.277.588.375.816a225.872 225.872 0 0 0 1.797-4.001l.098-.229a493.212 493.212 0 0 1 2.27-4.997c.016-.049.049-.082.065-.114a.678.678 0 0 1 .147-.229.517.517 0 0 1 .376-.147c.572 0 1.094 0 1.551-.016h.115c.261-.017.604-.017.98-.017.098 0 .245.033.392.18l.016.016.016.017a.645.645 0 0 1 .131.359.486.486 0 0 1-.196.392l-.016.016a.647.647 0 0 1-.36.131c-.359 0-.669 0-.963.016h-.115c-.196.017-.424.017-.686.017a233.104 233.104 0 0 0-.097 6.385c0 1.29.016 2.483.048 3.544.05 0 .099 0 .148.017.326.016.718.016 1.143.016.114 0 .245.049.359.131l.016.016.017.016a.532.532 0 0 1 .163.376.552.552 0 0 1-.18.392.55.55 0 0 1-.392.179c-.441 0-.833 0-1.192-.016-.212-.016-.457-.016-.702-.016h-.523c-.506 0-.947.016-1.339.049l-.033-.082z" fill="#414042"/><path d="M105.265 123.91h-.196c-.18 0-.376-.016-.588-.016h-.033c-.098-.016-.261-.016-.49-.016h-.31l-1.306-.033a.522.522 0 0 1-.376-.163.532.532 0 0 1-.163-.376.65.65 0 0 1 .13-.359l.017-.017.016-.016a.532.532 0 0 1 .376-.163l.522.016h.49c.163-.408.441-1.078.817-1.96.065-.163.228-.555.49-1.176l.098-.212-.801-.049h-.179c-1.062 0-1.29.212-1.339.294-.033.147-.147.261-.311.327a.457.457 0 0 1-.212.049.512.512 0 0 1-.212-.049.524.524 0 0 1-.294-.278.502.502 0 0 1-.017-.408l.017-.066.277-.637.784-.196c.376-.114.866-.163 1.486-.163.523.016.931.049 1.258.065.114-.228.196-.44.278-.636.963-2.287 1.649-4.018 2.008-5.129l.049-.098a.491.491 0 0 1 .311-.359.555.555 0 0 1 .212-.049c.065 0 .147.016.212.049h.017a.578.578 0 0 1 .261.261v.017c.49 1.176 1.159 2.825 1.992 4.916l.098.228.572 1.454c.408.032.784.032 1.127.032l.653-.016c1.111-.049 1.96-.245 2.515-.572l.017-.016h.016a.634.634 0 0 1 .228-.049.553.553 0 0 1 .474.245c.065.065.131.212.082.425a.588.588 0 0 1-.229.343h-.016c-.686.424-1.715.686-3.054.735l-.67.016c-.163 0-.392 0-.686-.016l.115.294c.31.816.604 1.535.865 2.139.033.065.049.131.065.196l1.144-.016c.147 0 .277.049.375.163a.533.533 0 0 1 .164.376.645.645 0 0 1-.131.359.467.467 0 0 1-.408.212c-1.111 0-2.27.017-3.463.049a.508.508 0 0 1-.408-.179.647.647 0 0 1-.147-.343v-.082c0-.098.033-.196.114-.31l.017-.017.016-.016a.606.606 0 0 1 .359-.163c.115-.017.376-.017.768-.017l.408-.016-.767-1.927-.327-.8-1.16-.098-1.469-.164c-.915-.114-1.552-.196-1.944-.245a9.674 9.674 0 0 0-.245.556c-.261.62-.424.996-.49 1.159l-.653 1.552.996.016c.213 0 .327.082.409.163a.576.576 0 0 1 .163.36v.032a.484.484 0 0 1-.163.392.622.622 0 0 1-.327.164h-.033c-.032.032-.13.032-.261.032zm2.744-5.21l1.469.164.572.065-.376-.931c-.049-.13-.081-.212-.081-.245l-1.437-3.56a87.406 87.406 0 0 1-1.617 3.968l-.147.327 1.617.212z" fill="#414042"/><path d="M122.07 123.698c-1.502 0-2.825-.36-3.919-1.062a5.28 5.28 0 0 1-1.78-1.911c-.425-.735-.686-1.584-.784-2.547-.017-.131-.017-.327-.017-.572 0-.735.098-1.405.311-2.025a6.09 6.09 0 0 1 1.208-2.221c.637-.719 1.388-1.242 2.238-1.536a5.541 5.541 0 0 1 1.878-.326c.196 0 .49.016.914.065 1.029.131 1.862.506 2.499 1.078l.065-.8v-.033c0-.049 0-.081.017-.114 0-.049 0-.098.016-.147a.472.472 0 0 1 .212-.376.54.54 0 0 1 .311-.098h.114a.602.602 0 0 1 .343.196v.033a.526.526 0 0 1 .098.376v.179l-.016.033v.065l-.098 1.094-.017.507c0 .163.017.359.033.604v.033a.516.516 0 0 1-.147.375.494.494 0 0 1-.359.196h-.066c-.049 0-.098-.016-.163-.032a.616.616 0 0 1-.425-.327l-.065-.147.082-.082-.213-.555-.669-.441a3.58 3.58 0 0 0-1.617-.588 6.66 6.66 0 0 0-.784-.049c-1.339 0-2.401.49-3.283 1.486a5.02 5.02 0 0 0-1.012 1.829 5.728 5.728 0 0 0-.245 1.666c0 .213 0 .376.016.49.066.768.278 1.47.637 2.123a4.656 4.656 0 0 0 1.437 1.552c.899.588 2.009.898 3.283.898.702 0 1.486-.098 2.352-.294-.017-.425-.033-1.094-.066-2.041 0-.262 0-.49-.016-.703v-.016c0-.604 0-1.062-.016-1.339-.294 0-.654.016-1.062.016h-.228a.592.592 0 0 1-.392-.163.496.496 0 0 1-.18-.392c0-.163.065-.31.196-.392a.507.507 0 0 1 .359-.147h.229l1.617-.033c.555-.016 1.176-.016 1.845-.016.114 0 .245.049.359.131l.017.016.016.016a.532.532 0 0 1 .163.376.55.55 0 0 1-.179.392.552.552 0 0 1-.392.18c-.49 0-.931 0-1.307.016 0 .294.017.735.017 1.339.016.229.016.474.016.719.016 1.159.049 1.959.065 2.368.017.081 0 .163-.016.245a.506.506 0 0 1-.392.408c-1.062.278-2.074.425-3.038.425zm9.015.294h-.114c-.686-.033-1.209-.033-1.568-.033h-.376a.524.524 0 0 1-.31-.114h-.033a.727.727 0 0 1-.212-.343v-.115c0-.098.033-.196.114-.31l.017-.016.016-.017a.532.532 0 0 1 .376-.163c.326-.016.637-.016.898-.016h.114c0-.882.033-1.976.066-3.25l.016-.702c0-.343 0-.588.016-.719.017-.474.017-1.111.017-1.927 0-1.241-.033-2.336-.082-3.234a9.57 9.57 0 0 1-1.029-.049h-.016a.62.62 0 0 1-.343-.196.463.463 0 0 1-.147-.392c0-.163.065-.294.196-.375a.429.429 0 0 1 .31-.115l.065-.016.556.049h1.666c.261-.016.571-.016.898-.016.147 0 .277.049.375.163a.571.571 0 0 1 .164.392.483.483 0 0 1-.164.392.53.53 0 0 1-.375.163c-.327 0-.621 0-.882.016h-.163c.049.915.081 1.993.081 3.234 0 .817 0 1.47-.016 1.944v.016c-.016.114-.016.343-.016.686l-.017.718a85.107 85.107 0 0 0-.065 3.267l1.127.032a.53.53 0 0 1 .392.164.53.53 0 0 1 .163.375.647.647 0 0 1-.131.36l-.016.016-.016.016a.571.571 0 0 1-.392.164l-1.16-.049zm8.983-.033c-2.041 0-3.593-.719-4.638-2.124-.474-.62-.8-1.371-.98-2.221a7.363 7.363 0 0 1-.163-1.47c0-.31.032-.702.081-1.126.131-.899.376-1.732.752-2.467.391-.751.881-1.388 1.453-1.878.67-.588 1.421-.947 2.254-1.061.212-.033.441-.049.669-.049.621 0 1.258.13 1.911.375a4.96 4.96 0 0 1 1.519.98c.016-.375.082-.784.163-1.192.017-.131.098-.245.229-.343a.447.447 0 0 1 .278-.098c.049 0 .081 0 .13.016a.585.585 0 0 1 .343.229c.066.065.131.212.066.425a5.826 5.826 0 0 0-.147 1.127c-.017.179-.017.604-.017 1.241v.359a.496.496 0 0 1-.326.49l-.164.065h-.114a.602.602 0 0 1-.278-.081c-.13-.098-.212-.213-.228-.36v-.049l-.098-.555-.539-.522a3.436 3.436 0 0 0-1.192-.784c-.556-.213-1.062-.327-1.519-.327-.784 0-1.535.294-2.205.882a5.142 5.142 0 0 0-1.209 1.568 6.916 6.916 0 0 0-.653 2.107 5.15 5.15 0 0 0-.065.898c0 .408.049.849.13 1.306.147.703.409 1.323.784 1.829.833 1.127 2.075 1.683 3.789 1.683.131 0 .278 0 .425-.017a3.967 3.967 0 0 0 1.894-.669c.441-.311 1.013-.801 1.666-1.454a.57.57 0 0 1 .392-.163.47.47 0 0 1 .409.212c.081.115.13.245.13.359a.474.474 0 0 1-.163.376c-.702.702-1.307 1.241-1.829 1.601a5.078 5.078 0 0 1-2.466.849c-.098.033-.262.033-.474.033z" fill="#414042"/><path fill-rule="evenodd" clip-rule="evenodd" d="M96.577 67.255l1.078 6.729c.196.882.947 1.617 1.813 1.813l4.311 1.078-4.311 1.077c-.882.213-1.617.948-1.813 1.813l-1.078 6.729-1.078-6.729c-.196-.882-.947-1.617-1.813-1.813l-4.312-1.078 4.312-1.077c.882-.196 1.617-.948 1.813-1.813l1.078-6.729z" fill="#fff"/></g><defs><clipPath id="clip0_601_6562"><path fill="#fff" transform="translate(15 9)" d="M0 0H130V122.079H0z"/></clipPath></defs></svg>