<svg width="160" height="140" fill="none" xmlns="http://www.w3.org/2000/svg"><path fill="#fff" d="M0 0H160V140H0z"/><g clip-path="url(#clip0_601_6563)"><path fill-rule="evenodd" clip-rule="evenodd" d="M71.975 88.645c9.813-11.308 13.484-21.834 11.019-31.593.007 9.435-2.459 17.753-7.388 24.966-1.28-.66-1.778-2-1.496-4.014.276-1.663.472-5.3-1.42-6.203-.917-.438-1.678.23-2.284 1.987-.572-1.994-.121-3.266 1.354-3.819 2.835-1.07 5.307 1.078 5.677 3.846 1.3-1.994-.316-4.344-1.663-5.826-3.125-3.441-3.044-7.792.465-11.18 3.38-3.266 4.64-6.863 3.791-10.796 5.995 3.812 9.052 9.597 9.173 17.336.31 5.132-1.946 9.361-6.782 12.675 1.738-.202 3.583-1.36 5.536-3.482-.814 5.913-3.778 9.227-8.876 9.954-2.809 3.186-3.28 4.978-7.106 6.15z" fill="#231916"/><path fill-rule="evenodd" clip-rule="evenodd" d="M100.282 45.521c-3.05-5.408-13.194-5.96-20.285-18.521-7.086 12.56-17.229 13.113-20.28 18.521-2.552 4.52-1.777 10.042-1.043 15.578.148 1.138 3.084 18.44 3.724 22.63a7.831 7.831 0 0 0-3.226 4.748c1.785-1.172 3.96-2.155 6.392-2.809 2.43-.653 4.808-.889 6.943-.767a7.849 7.849 0 0 0-4.607-2.438c-.754-4.775-3.502-20.973-3.636-22.01-.452-3.422-1.435-8.998.357-12.164.04-.067.08-.134.134-.195.478-.613 1.495-1.226 2.156-1.61 1.677-.983 3.414-1.852 5.091-2.855 3.118-1.873 5.738-3.98 7.968-6.493l.033.04.034-.04c2.23 2.512 4.85 4.62 7.967 6.493 1.67 1.003 3.408 1.872 5.092 2.855.66.384 1.677.997 2.155 1.61.047.06.094.128.135.195 1.785 3.166.808 8.742.357 12.164-.135 1.03-2.829 16.945-3.617 21.882a7.773 7.773 0 0 0-5.166 2.498c2.136-.121 4.513.115 6.944.768 2.432.653 4.607 1.637 6.392 2.808a7.8 7.8 0 0 0-2.728-4.377c.539-3.583 3.617-21.754 3.772-22.926.72-5.543 1.495-11.066-1.058-15.585z" fill="#E57C41"/><path fill-rule="evenodd" clip-rule="evenodd" d="M100.282 45.521c-2.983-5.28-12.722-5.933-19.78-17.659a30.427 30.427 0 0 1-5.442 5.785c-4.398 4.52-9.066 6.466-12.258 8.729a7.15 7.15 0 0 0-.545.815c-2.553 4.519-1.779 10.042-1.044 15.578.148 1.138 3.084 18.44 3.724 22.63a7.831 7.831 0 0 0-3.226 4.748c1.785-1.172 3.96-2.156 6.392-2.809a23.96 23.96 0 0 1 1.61-.37 7.985 7.985 0 0 0-1.82-.499c-.754-4.775-3.502-20.972-3.636-22.01-.451-3.421-1.435-8.998.357-12.163.04-.067.08-.135.135-.195.478-.606 1.488-1.22 2.148-1.603.08-.182.168-.357.263-.526.04-.067.08-.134.134-.195.478-.613 1.496-1.226 2.156-1.61 1.676-.983 3.414-1.852 5.091-2.855 1.617-.97 3.091-2 4.459-3.118.33-.337.653-.688.97-1.044l.033.04.034-.04.074.08a29.984 29.984 0 0 0 2.398-2.41l.033.04.034-.04c2.23 2.511 4.85 4.62 7.968 6.492 1.67 1.003 3.407 1.872 5.091 2.855.66.384 1.677.997 2.155 1.61.047.06.095.128.135.195 1.785 3.166.808 8.742.357 12.164-.135 1.03-2.829 16.945-3.617 21.882a7.691 7.691 0 0 0-2.25.505l-.296 1.825a8.29 8.29 0 0 0-1.01.142c1.69.04 3.489.303 5.328.788.404.107.794.222 1.185.35.68-4.371 3.556-21.384 3.711-22.515.727-5.55 1.502-11.073-1.051-15.592z" fill="#F2966C"/><path fill-rule="evenodd" clip-rule="evenodd" d="M12.755 90.564L10 105.066h3.098l2.755-14.5h-3.098zm2.707 13.895c.626.472 1.892.815 3.226.815 2.775 0 4.816-1.293 4.816-3.697 0-1.462-1.206-2.304-2.344-2.883-.862-.41-1.293-.775-1.293-1.206 0-.559.559-.922 1.373-.922.923 0 1.657.256 2.109.471l.734-2.196c-.519-.302-1.482-.538-2.708-.538-2.707 0-4.627 1.441-4.627 3.616 0 1.314 1.01 2.196 2.236 2.795.97.472 1.314.842 1.314 1.354 0 .519-.452.95-1.334.95-1.01 0-2.148-.431-2.755-.734l-.747 2.175zm12.413.606l2.93-15.275h-3.099l-2.93 15.275h3.099zm12.352 0c-.04-1.313.148-3.374.41-4.734l1.118-5.51c-.882-.282-2.236-.518-3.482-.518-5.186 0-7.53 3.785-7.53 7.334 0 2.196 1.294 3.657 3.186 3.657 1.226 0 2.56-.579 3.53-2.323h.067a38.307 38.307 0 0 0-.148 2.087h2.849v.007zm-2.459-5.893c-.471 2.58-1.616 3.637-2.539 3.637-.862 0-1.266-.707-1.266-1.744 0-1.96 1.462-4.412 3.462-4.412.303 0 .6.04.842.088l-.499 2.431zm7.732 5.893l.862-4.734c.384-2.068 1.482-3.55 2.54-3.55.754 0 .99.58.99 1.293 0 .364-.068.775-.149 1.206l-1.078 5.785h2.984l.882-4.775c.411-2.108 1.421-3.509 2.452-3.509.727 0 1.05.519 1.05 1.246 0 .411-.067.862-.148 1.293l-1.05 5.745h2.983l1.139-6.128a11.25 11.25 0 0 0 .195-1.805c0-1.785-.95-2.816-2.58-2.816-1.353 0-2.667.627-3.61 1.98-.087-.922-.815-1.98-2.498-1.98-1.354 0-2.64.58-3.59 1.933h-.04l.195-1.697h-2.674a93.1 93.1 0 0 1-.539 3.421l-1.313 7.099H45.5v-.007zm17.975.001l2-10.52h-3.097l-2 10.52h3.097zm.842-11.834c.99 0 1.832-.646 1.832-1.744 0-.923-.646-1.529-1.549-1.529-.95 0-1.764.707-1.784 1.764-.007.93.64 1.51 1.501 1.51zm9.51 9.146c-.538.215-1.185.431-2.087.431-1.159 0-2.068-.734-2.068-2.176 0-1.98 1.354-3.852 3.57-3.852.626 0 1.057.108 1.42.256l.755-2.364c-.451-.195-1.226-.364-2.128-.364-4 0-6.863 2.923-6.863 6.668 0 2.734 1.825 4.304 4.431 4.304 1.246 0 2.324-.216 2.99-.539l-.02-2.364zm11.275 2.687l2.471-5.873c.735-1.785 1.226-3.334 1.758-4.883h.04a86.112 86.112 0 0 0-.127 4.795l.107 5.961h3.375l6.391-14.5h-3.246l-2.519 6.452a158.496 158.496 0 0 0-1.59 4.626h-.04c.068-1.421.108-2.862.128-4.606l.04-6.473h-3.394l-2.6 6.5a174.137 174.137 0 0 0-1.697 4.647h-.04c.04-1.293.067-2.95.087-4.688l-.02-6.452h-3.125l.56 14.501h3.44v-.007zm15.524 0l.734-3.913c.384-2.068 1.313-3.832 3.293-3.832.176 0 .344 0 .492.02l.6-3.01c-.196-.02-.384-.02-.58-.02-1.441 0-2.626.99-3.354 2.39h-.067c.067-.734.128-1.441.195-2.148h-2.687c-.108.902-.236 2.667-.539 4.256l-1.185 6.257h3.098zm7.961.001l2-10.52h-3.098l-2 10.52h3.098zm.842-11.834c.99 0 1.832-.646 1.832-1.744 0-.923-.647-1.529-1.549-1.529-.95 0-1.765.707-1.785 1.764-.007.93.64 1.51 1.502 1.51zm4.559-.903l-.431 2.216h-1.353l-.432 2.343h1.334l-.815 4.196c-.148.795-.215 1.374-.215 1.96 0 1.314.882 2.256 2.734 2.256.667 0 1.441-.087 1.825-.235l.364-2.432c-.283.041-.579.041-.862.041-.667 0-.883-.364-.883-.883 0-.363.088-.902.176-1.333l.707-3.57h2.236l.451-2.343h-2.236l.559-2.95-3.159.734zm13.167 9.894a6.59 6.59 0 0 1-2.95.667c-.902 0-1.616-.283-2.02-.815-.216-.303-.324-.775-.324-1.078 4.216.108 6.816-.862 6.816-3.55 0-1.96-1.529-3.138-3.657-3.138-3.805 0-6.129 3.334-6.129 6.54 0 2.734 1.549 4.432 4.56 4.432 1.158 0 2.687-.196 3.913-.815l-.209-2.243zm-1.381-4.755c0 .95-1.205 1.293-3.616 1.266.215-.99 1.03-2.175 2.471-2.175.714.007 1.145.377 1.145.909zm6.668 7.597l.734-3.913c.384-2.068 1.313-3.832 3.293-3.832.175 0 .344 0 .492.02l.599-3.01c-.195-.02-.383-.02-.579-.02-1.441 0-2.626.99-3.354 2.39h-.067c.067-.734.128-1.441.195-2.148h-2.687c-.108.902-.236 2.667-.539 4.256l-1.185 6.257h3.098zm8.499-14.54c-.559 1.892-1.421 3.98-2.343 5.805l2.04-.175c1.226-1.617 2.411-3.725 3.375-5.833l-3.072.202zm.432 13.934c.626.472 1.892.815 3.226.815 2.774 0 4.815-1.293 4.815-3.697 0-1.462-1.205-2.304-2.344-2.883-.862-.41-1.293-.775-1.293-1.206 0-.559.559-.922 1.374-.922.923 0 1.657.256 2.108.471l.734-2.196c-.518-.302-1.481-.538-2.707-.538-2.708 0-4.627 1.441-4.627 3.616 0 1.314 1.01 2.196 2.236 2.795.97.472 1.313.842 1.313 1.354 0 .519-.451.95-1.333.95-1.01 0-2.149-.431-2.755-.734l-.747 2.175z" fill="#434343"/><path fill-rule="evenodd" clip-rule="evenodd" d="M38.112 108.015h2.835v.828h-.956v5.004h-.916v-5.004h-.963v-.828z" fill="url(#paint0_linear_601_6563)"/><path fill-rule="evenodd" clip-rule="evenodd" d="M48.935 113.847h-.923l-.162-1.057h-1.124l-.162 1.057h-.842l.936-5.832h1.34l.937 5.832zm-2.088-1.852h.882l-.444-2.95-.438 2.95z" fill="url(#paint1_linear_601_6563)"/><path fill-rule="evenodd" clip-rule="evenodd" d="M55.676 110.594h1.287v1.852c0 .472-.115.835-.344 1.085-.229.256-.572.377-1.023.377-.451 0-.788-.128-1.024-.377-.229-.256-.344-.613-.344-1.085v-3.03c0-.472.115-.836.344-1.085.229-.256.572-.377 1.024-.377.451 0 .788.128 1.023.377.23.256.344.613.344 1.085v.565h-.869v-.626c0-.209-.04-.357-.128-.445a.464.464 0 0 0-.343-.127c-.142 0-.263.04-.344.127-.087.088-.128.236-.128.445v3.152c0 .209.04.357.128.444a.49.49 0 0 0 .344.128c.141 0 .262-.04.343-.128.088-.08.128-.229.128-.444v-1.078h-.418v-.835z" fill="url(#paint2_linear_601_6563)"/><path fill-rule="evenodd" clip-rule="evenodd" d="M62.492 108.015h.923v4.997h1.502v.835h-2.425v-5.832z" fill="url(#paint3_linear_601_6563)"/><path d="M71.18 108.015h-.915v5.832h.916v-5.832z" fill="url(#paint4_linear_601_6563)"/><path fill-rule="evenodd" clip-rule="evenodd" d="M77.606 109.624v4.223h-.829v-5.832h1.152l.943 3.488v-3.488h.815v5.832h-.943l-1.138-4.223z" fill="url(#paint5_linear_601_6563)"/><path fill-rule="evenodd" clip-rule="evenodd" d="M86.2 110.473h1.26v.828H86.2v1.711h1.59v.835h-2.506v-5.832h2.505v.828H86.2v1.63z" fill="url(#paint6_linear_601_6563)"/><path fill-rule="evenodd" clip-rule="evenodd" d="M95.5 113.847h-.915v-5.832h.915v2.498h1.044v-2.498h.93v5.832h-.93v-2.499H95.5v2.499z" fill="url(#paint7_linear_601_6563)"/><path fill-rule="evenodd" clip-rule="evenodd" d="M104 110.473h1.259v.828H104v1.711h1.583v.835h-2.499v-5.832h2.499v.828H104v1.63z" fill="url(#paint8_linear_601_6563)"/><path fill-rule="evenodd" clip-rule="evenodd" d="M113.011 113.847c-.013-.04-.02-.074-.033-.108a1.333 1.333 0 0 1-.041-.316c0-.081-.007-.175-.007-.29v-.916c0-.269-.047-.464-.141-.572-.094-.115-.249-.168-.458-.168h-.317v2.377h-.922v-5.833h1.38c.479 0 .822.108 1.038.33.215.223.323.56.323 1.011v.458c0 .599-.202.997-.599 1.185.235.094.39.249.478.465.087.215.128.471.128.781v.903c0 .141.006.269.013.377.014.107.041.215.081.33h-.923v-.014zm-1.003-5.004v1.792h.357c.175 0 .31-.047.404-.135.094-.088.148-.249.148-.485v-.572c0-.209-.04-.364-.115-.458-.074-.095-.195-.142-.356-.142h-.438z" fill="url(#paint9_linear_601_6563)"/><path fill-rule="evenodd" clip-rule="evenodd" d="M120.299 110.473h1.259v.828h-1.259v1.711h1.582v.835h-2.498v-5.832h2.498v.828h-1.582v1.63z" fill="url(#paint10_linear_601_6563)"/></g><defs><linearGradient id="paint0_linear_601_6563" x1="39.531" y1="108.22" x2="39.513" y2="113.977" gradientUnits="userSpaceOnUse"><stop stop-color="#CAB863"/><stop offset="1" stop-color="#B29D36"/></linearGradient><linearGradient id="paint1_linear_601_6563" x1="47.351" y1="108.246" x2="47.333" y2="114.004" gradientUnits="userSpaceOnUse"><stop stop-color="#CAB863"/><stop offset="1" stop-color="#B29D36"/></linearGradient><linearGradient id="paint2_linear_601_6563" x1="55.604" y1="108.273" x2="55.586" y2="114.025" gradientUnits="userSpaceOnUse"><stop stop-color="#CAB863"/><stop offset="1" stop-color="#B29D36"/></linearGradient><linearGradient id="paint3_linear_601_6563" x1="63.716" y1="108.298" x2="63.698" y2="114.054" gradientUnits="userSpaceOnUse"><stop stop-color="#CAB863"/><stop offset="1" stop-color="#B29D36"/></linearGradient><linearGradient id="paint4_linear_601_6563" x1="70.728" y1="108.315" x2="70.71" y2="114.075" gradientUnits="userSpaceOnUse"><stop stop-color="#CAB863"/><stop offset="1" stop-color="#B29D36"/></linearGradient><linearGradient id="paint5_linear_601_6563" x1="78.24" y1="108.338" x2="78.222" y2="114.099" gradientUnits="userSpaceOnUse"><stop stop-color="#CAB863"/><stop offset="1" stop-color="#B29D36"/></linearGradient><linearGradient id="paint6_linear_601_6563" x1="86.544" y1="108.364" x2="86.526" y2="114.124" gradientUnits="userSpaceOnUse"><stop stop-color="#CAB863"/><stop offset="1" stop-color="#B29D36"/></linearGradient><linearGradient id="paint7_linear_601_6563" x1="96.039" y1="108.393" x2="96.021" y2="114.153" gradientUnits="userSpaceOnUse"><stop stop-color="#CAB863"/><stop offset="1" stop-color="#B29D36"/></linearGradient><linearGradient id="paint8_linear_601_6563" x1="104.342" y1="108.418" x2="104.325" y2="114.178" gradientUnits="userSpaceOnUse"><stop stop-color="#CAB863"/><stop offset="1" stop-color="#B29D36"/></linearGradient><linearGradient id="paint9_linear_601_6563" x1="112.525" y1="108.448" x2="112.507" y2="114.203" gradientUnits="userSpaceOnUse"><stop stop-color="#CAB863"/><stop offset="1" stop-color="#B29D36"/></linearGradient><linearGradient id="paint10_linear_601_6563" x1="120.641" y1="108.468" x2="120.624" y2="114.228" gradientUnits="userSpaceOnUse"><stop stop-color="#CAB863"/><stop offset="1" stop-color="#B29D36"/></linearGradient><clipPath id="clip0_601_6563"><path fill="#fff" transform="translate(10 27)" d="M0 0H140V86.915H0z"/></clipPath></defs></svg>